<svg xmlns="http://www.w3.org/2000/svg" viewBox="0 0 460 392" width="460" height="392">
    <g>
        <circle cx="221" cy="180" r="179" fill="#EDF5FD"></circle>
        <path fill="#FFFFFF" d="M221 1c4.7 0 9.36.18 14 .54v10.05L225.59 21h-3.18l-10-10h-10.65L181 21.38V29h11.24l19.56-9.78L220.6 28l-4 4 4.41 4.41V51h-4.59l-4-4H201v6h-19.24l-30 15H145v8.59L137.59 84H129V64h-21.41L99 72.59V83.4l10 10v3.18l-6 6v8.65L113.38 132h18.38l39.5 19.75 9.92 19.84L211 201.41v19.18L181.59 250h-20L131 280.59V300h-10.59l-9.41-9.41v-86l-12-12v-29.35l10.22-20.44-8.22-8.21v-5.83l-20-40V75.41l6-6v-8.1A178.53 178.53 0 0 1 221 1zm91 42.51V25.82A178.9 178.9 0 0 1 400 180c0 27.7-6.3 54.5-18.24 78.8L326.6 314H308v-8.77l30-60.01v-40.66l-10.59-10.6h-30l-19.2-19.2L288 155.2v-13.82l29.41-29.43h21.35L380 132.57v-12.24l-34-17v-6.39h-6.59L335 92.52l-10.41 10.42h-9.18L306 93.52v-8.58h8.59l6.41 6.41 11-11V63.52l-20-20z"></path>
        <path fill="#4DA4F5" d="M221 360c-99.41 0-180-80.59-180-180S121.59 0 221 0s180 80.59 180 180-80.59 180-180 180zm156.96-95.97L327 315h-20v-10l30-60.02v-40.01l-10-10h-30l-20-20 10-20.01v-14l30-30.02h22l40 20v-10l-34-17v-6h-6l-4-4-10 10h-10l-10-10v-10h10l6 6 10-10V63.92l-20-20V26.4a176.9 176.9 0 0 0-75-23.78V12l-10 10h-4l-10-10h-10l-20 10v6h10l20-10 10 10-4 4 4 4v16h-6l-4-4h-10v6h-20l-30 15h-6v8l-8 8h-10V65h-20l-8 8v10l10 10v4l-6 6v8l10 20h18l40 20 10 20 30 30v20l-30 30h-20l-30 30v20h-12l-10-10v-86l-12-12v-30l10-20-8-8v-6L80 89V75l6-6v-5.02A177.3 177.3 0 0 0 43 180c0 98.3 79.7 178 178 178 67.92 0 126.95-38.04 156.96-93.97zm2.98-5.81A177.28 177.28 0 0 0 399 180c0-64.64-34.45-121.23-86-152.41v15.5l20 20.01v17.66l-12 12-6.83-6.82H307v7.17l8.83 8.83h8.34L335 91.11l4.83 4.83H347v6.77l34 17v14.48l-42.47-21.25h-20.7L289 141.78v13.65l-9.57 19.14 18.4 18.4h30L339 204.14v41.31l-30 60.02V313h17.17l54.77-54.78zM88 61.7v8.13l-6 6v12.7l20 40v5.64l8.43 8.44L100 163.47v28.7l12 12v86l8.83 8.83H130v-18.83L161.17 249h20L210 220.17v-18.34l-29.64-29.65-9.85-19.69L131.53 133h-18.77L102 111.47v-9.3l6-6v-2.34l-10-10V72.17l9.17-9.17H130v20h7.17l6.83-6.83V67h7.53l30-15H200v-6h12.83l4 4H220V36.83L215.17 32l4-4-7.56-7.57L192.47 30H180v-9.24L201.53 10h11.3l10 10h2.34l8.83-8.83v-8.7A177.56 177.56 0 0 0 88 61.7zm153 76.25a10.87 10.87 0 0 1-6.5-2.95 10.86 10.86 0 0 1-15 0 10.86 10.86 0 0 1-15 0c-2.01 1.9-4.67 3-7.5 3v-2.04a8.9 8.9 0 0 0 6.75-3.1l.75-.86.75.86a8.9 8.9 0 0 0 13.5 0l.75-.86.75.86a8.9 8.9 0 0 0 13.5 0l.75-.86.75.86a8.92 8.92 0 0 0 5.75 3.05v2.04zm0 190a10.87 10.87 0 0 1-6.5-2.95 10.86 10.86 0 0 1-15 0 10.86 10.86 0 0 1-15 0c-2.01 1.9-4.67 3-7.5 3v-2.04a8.9 8.9 0 0 0 6.75-3.1l.75-.86.75.86a8.9 8.9 0 0 0 13.5 0l.75-.86.75.86a8.9 8.9 0 0 0 13.5 0l.75-.86.75.86a8.92 8.92 0 0 0 5.75 3.05v2.04zm18-60.14a10.87 10.87 0 0 1-9.5-2.81 10.86 10.86 0 0 1-15 0c-2.01 1.9-4.67 3-7.5 3v-2.04a8.9 8.9 0 0 0 6.75-3.1l.75-.86.75.86a8.9 8.9 0 0 0 13.5 0l.75-.86.75.86a8.9 8.9 0 0 0 8.75 2.88v2.07zm-166-50a10.87 10.87 0 0 1-9.5-2.81 10.86 10.86 0 0 1-15 0c-2.01 1.9-4.67 3-7.5 3v-2.04a8.9 8.9 0 0 0 6.75-3.1l.75-.86.75.86a8.9 8.9 0 0 0 13.5 0l.75-.86.75.86a8.9 8.9 0 0 0 8.75 2.88v2.07zm170-140a10.87 10.87 0 0 1-9.5-2.81 10.86 10.86 0 0 1-15 0c-2.01 1.9-4.67 3-7.5 3v-2.04a8.9 8.9 0 0 0 6.75-3.1l.75-.86.75.86a8.9 8.9 0 0 0 13.5 0l.75-.86.75.86a8.9 8.9 0 0 0 8.75 2.88v2.07z"></path>
        <circle cx="46" cy="154" r="15" fill="#FFFFFF"></circle>
        <circle cx="330" cy="268" r="15" fill="#FFFFFF"></circle>
        <path fill="#45178C" d="M102.57 344a7.5 7.5 0 0 0-7.93-4.96 11.1 11.1 0 0 0-11.14-8.03 13.98 13.98 0 0 0-24.96 4.12A9 9 0 0 0 48 344H37v2h13.29a7 7 0 0 1 7.91-8.9l1.77.3.5-1.72a12 12 0 0 1 21.39-3.53l.63.9 1.1-.04.41-.01a9 9 0 0 1 8.67 6.59l.46 1.65 1.7-.2a5.5 5.5 0 0 1 6.14 4.96H110v-2h-7.43zm341-160a7.5 7.5 0 0 0-7.93-4.96 11.1 11.1 0 0 0-11.14-8.03 13.98 13.98 0 0 0-24.96 4.12A9 9 0 0 0 389 184h-11v2h13.29a7 7 0 0 1 7.91-8.9l1.77.3.5-1.72a12 12 0 0 1 21.39-3.53l.63.9 1.1-.04.41-.01a9 9 0 0 1 8.67 6.59l.46 1.65 1.7-.2a5.5 5.5 0 0 1 6.14 4.96H451v-2h-7.43zM62 89a8.5 8.5 0 0 0-8.37-8 12 12 0 0 0-21.6-3.65 6 6 0 0 0-7.95 4.7 8 8 0 0 0-7 6.95H9v2h10.08A6 6 0 0 1 25 84h1v-1a4 4 0 0 1 5.92-3.5l.87.47.49-.86a10 10 0 0 1 18.56 3.1l.16.9.91-.08.59-.03a6.5 6.5 0 0 1 6.33 8H77v-2H61.99zM83 13V8h-2v5h-5v2h5v5h2v-5h5v-2h-5zM61.5 157.96a3.06 3.06 0 0 1 1.68 3.57 4.84 4.84 0 0 1-3.56 3.5c-.47.15-.83.23-1.78.43l-.86.17a16 16 0 1 1 4.52-7.67zm-2.01-.19A14.01 14.01 0 1 0 32 154a14 14 0 0 0 23.09 10.65c-.64-.57-.9-.81-1.22-1.15a4.84 4.84 0 0 1-1.32-4.82 3.06 3.06 0 0 1 5.79-.35c.34-.26.73-.46 1.15-.56zM41 156c-1.1 0-2-1.34-2-3s.9-3 2-3 2 1.34 2 3-.9 3-2 3zm5.3 1.7a1 1 0 0 1 1.4-1.4l1.3 1.29a2 2 0 0 1 0 2.82l-.59.59.59.59a2 2 0 0 1 0 2.82l-1.05 1.06a1 1 0 0 1-1.42-1.42L47.6 163l-.59-.59a2 2 0 0 1 0-2.82l.59-.59-1.3-1.3zm2.58-2.82a1 1 0 0 1-1.42-1.42 4.98 4.98 0 0 1 7.08 0 1 1 0 0 1-1.42 1.42 3 3 0 0 0-4.24 0zM51 148c2.49 0 4.74 1 6.36 2.64a1 1 0 0 1-1.41 1.41A6.98 6.98 0 0 0 51 150a1 1 0 1 1 0-2zm-15.8.5a8.97 8.97 0 0 1 5.47-4.2 1 1 0 1 1 .52 1.94 6.98 6.98 0 0 0-4.25 3.26 1 1 0 1 1-1.73-1zm290.83 135a16 16 0 1 1 7.94 0 4 4 0 0 1-7.94 0zm-.03-4.25c-2.78-1.09-5-3.27-6.16-6.02A19.9 19.9 0 0 0 330 276c3.7 0 7.18-1 10.16-2.77a11.04 11.04 0 0 1-6.16 6.02v2.17a14 14 0 1 0-8 0v-2.17zm4-1.25c-.67 0-1.34-.03-2-.09V283a2 2 0 0 0 4 0v-5.09c-.66.06-1.33.09-2 .09zm7-6a6 6 0 1 1 0-12 6 6 0 0 1 0 12zm0-2a4 4 0 1 0 0-8 4 4 0 0 0 0 8zm-9.76-2.24a1 1 0 0 1-1.41 1.41 4 4 0 0 0-5.66 0 1 1 0 0 1-1.41-1.41 6 6 0 0 1 8.48 0zm9.76.24a2 2 0 1 1 0-4 2 2 0 0 1 0 4zM47 283a6 6 0 1 1 0-12 6 6 0 0 1 0 12zm0-2a4 4 0 1 0 0-8 4 4 0 0 0 0 8zM350.37 45.08a18.16 18.16 0 0 1-11.5-11.53l1.92-.64a16.14 16.14 0 0 0 10.22 10.25l-.64 1.92zm1.28-3.83a14.13 14.13 0 0 1-8.94-8.97l1.91-.64a12.1 12.1 0 0 0 7.67 7.69l-.64 1.92zm8.77-37.83a18.16 18.16 0 0 1 11.5 11.53l-1.92.64a16.14 16.14 0 0 0-10.22-10.25l.64-1.92zm-1.28 3.83a14.13 14.13 0 0 1 8.94 8.97l-1.91.64a12.1 12.1 0 0 0-7.67-7.69l.64-1.92zm-.78 36.23l-9.67-9.67a3.54 3.54 0 0 1 1.3-5.83l-2.02-2.03a3.54 3.54 0 0 1 1.3-5.83 3.54 3.54 0 0 1 5-5 3.54 3.54 0 0 1 5.83-1.3l9.57 9.57a1.01 1.01 0 0 0 1.72-.62l.38-4.26c.08-.94.5-1.82 1.16-2.49l.75-.75a3.54 3.54 0 0 1 5 .01l1.08 1.07c.8.8.8 2.08 0 2.86l-.66.67a2.02 2.02 0 0 0-.55 1.82l1.6 7.93c.67 3.32-.36 6.75-2.75 9.13l-4.74 4.75a10.1 10.1 0 0 1-14.3-.03zm-8.24-11.1l9.67 9.67a8.09 8.09 0 0 0 11.44.02l4.74-4.74a8.07 8.07 0 0 0 2.2-7.3l-1.6-7.93a4.03 4.03 0 0 1 1.1-3.66l.66-.66-1.07-1.07c-.6-.6-1.56-.6-2.15 0l-.75.74c-.33.34-.54.78-.58 1.25l-.38 4.25a3.02 3.02 0 0 1-5.16 1.87l-9.57-9.57a1.52 1.52 0 1 0-2.14 2.14l6.81 6.8a1 1 0 0 1 0 1.42l-.01.02a1 1 0 0 1-1.42 0l-8.96-8.96a1.52 1.52 0 1 0-2.14 2.14l9.68 9.67a1 1 0 0 1 0 1.42h-.01a1 1 0 0 1-1.42 0l-7.53-7.52a1.52 1.52 0 1 0-2.14 2.14l8.96 8.96a1 1 0 0 1 0 1.42h-.01a1 1 0 0 1-1.41 0l-4.67-4.65a1.52 1.52 0 1 0-2.14 2.14zM407 303a6 6 0 1 1 0-12 6 6 0 0 1 0 12zm0-2a4 4 0 1 0 0-8 4 4 0 0 0 0 8zm-236-69c-1.08 0-1.96-.9-1.96-2s.88-2 1.96-2 1.96.9 1.96 2-.88 2-1.96 2zm4.16-6.24c.39.39.39 1.02 0 1.41-.38.4-1 .4-1.38 0a3.87 3.87 0 0 0-5.56 0c-.38.4-1 .4-1.38 0a1.01 1.01 0 0 1 0-1.41 5.8 5.8 0 0 1 8.32 0zm2.78-2.83c.38.39.38 1.02 0 1.41-.39.4-1 .4-1.39 0a7.74 7.74 0 0 0-11.1 0c-.38.4-1 .4-1.39 0a1.01 1.01 0 0 1 0-1.41 9.68 9.68 0 0 1 13.88 0zm2.77-2.83c.39.4.39 1.02 0 1.41-.38.4-1 .4-1.38 0a11.62 11.62 0 0 0-16.66 0c-.38.4-1 .4-1.38 0a1.01 1.01 0 0 1 0-1.4 13.55 13.55 0 0 1 19.42 0zM361 252c-1.08 0-1.96-.9-1.96-2s.88-2 1.96-2 1.96.9 1.96 2-.88 2-1.96 2zm4.16-6.24c.39.39.39 1.02 0 1.41-.38.4-1 .4-1.38 0a3.87 3.87 0 0 0-5.56 0c-.38.4-1 .4-1.38 0a1.01 1.01 0 0 1 0-1.41 5.8 5.8 0 0 1 8.32 0zm2.78-2.83c.38.39.38 1.02 0 1.41-.39.4-1 .4-1.39 0a7.74 7.74 0 0 0-11.1 0c-.38.4-1 .4-1.39 0a1.01 1.01 0 0 1 0-1.41 9.68 9.68 0 0 1 13.88 0zm2.77-2.83c.39.4.39 1.02 0 1.41-.38.4-1 .4-1.38 0a11.62 11.62 0 0 0-16.66 0c-.38.4-1 .4-1.38 0a1.01 1.01 0 0 1 0-1.4 13.55 13.55 0 0 1 19.42 0zM131 172c-1.08 0-1.96-.9-1.96-2s.88-2 1.96-2 1.96.9 1.96 2-.88 2-1.96 2zm4.16-6.24c.39.39.39 1.02 0 1.41-.38.4-1 .4-1.38 0a3.87 3.87 0 0 0-5.56 0c-.38.4-1 .4-1.38 0a1.01 1.01 0 0 1 0-1.41 5.8 5.8 0 0 1 8.32 0zm2.78-2.83c.38.39.38 1.02 0 1.41-.39.4-1 .4-1.39 0a7.74 7.74 0 0 0-11.1 0c-.38.4-1 .4-1.39 0a1.01 1.01 0 0 1 0-1.41 9.68 9.68 0 0 1 13.88 0zm2.77-2.83c.39.4.39 1.02 0 1.41-.38.4-1 .4-1.38 0a11.62 11.62 0 0 0-16.66 0c-.38.4-1 .4-1.38 0a1.01 1.01 0 0 1 0-1.4 13.55 13.55 0 0 1 19.42 0zM351 162c-1.08 0-1.96-.9-1.96-2s.88-2 1.96-2 1.96.9 1.96 2-.88 2-1.96 2zm4.16-6.24c.39.39.39 1.02 0 1.41-.38.4-1 .4-1.38 0a3.87 3.87 0 0 0-5.56 0c-.38.4-1 .4-1.38 0a1.01 1.01 0 0 1 0-1.41 5.8 5.8 0 0 1 8.32 0zm2.78-2.83c.38.39.38 1.02 0 1.41-.39.4-1 .4-1.39 0a7.74 7.74 0 0 0-11.1 0c-.38.4-1 .4-1.39 0a1.01 1.01 0 0 1 0-1.41 9.68 9.68 0 0 1 13.88 0zm2.77-2.83c.39.4.39 1.02 0 1.41-.38.4-1 .4-1.38 0a11.62 11.62 0 0 0-16.66 0c-.38.4-1 .4-1.38 0a1.01 1.01 0 0 1 0-1.4 13.55 13.55 0 0 1 19.42 0zM148 54c-1.08 0-1.96-.9-1.96-2s.88-2 1.96-2 1.96.9 1.96 2-.88 2-1.96 2zm4.16-6.24c.39.39.39 1.02 0 1.41-.38.4-1 .4-1.38 0a3.87 3.87 0 0 0-5.56 0c-.38.4-1 .4-1.38 0a1.01 1.01 0 0 1 0-1.41 5.8 5.8 0 0 1 8.32 0zm2.78-2.83c.38.39.38 1.02 0 1.41-.39.4-1 .4-1.39 0a7.74 7.74 0 0 0-11.1 0c-.38.4-1 .4-1.39 0a1.01 1.01 0 0 1 0-1.41 9.68 9.68 0 0 1 13.88 0zm2.77-2.83c.39.4.39 1.02 0 1.41-.38.4-1 .4-1.38 0a11.62 11.62 0 0 0-16.66 0c-.38.4-1 .4-1.38 0a1.01 1.01 0 0 1 0-1.4 13.55 13.55 0 0 1 19.42 0zM232 376.93l7.07 7.07-7.07 7.07-7.07-7.07 7.07-7.07zm-4.24 7.07l4.24 4.24 4.24-4.24-4.24-4.24-4.24 4.24zM406 67.93l7.07 7.07-7.07 7.07-7.07-7.07 7.07-7.07zM401.76 75l4.24 4.24 4.24-4.24-4.24-4.24-4.24 4.24z"></path>
    </g>
</svg>