<svg xmlns="http://www.w3.org/2000/svg" width="1345" height="600" viewBox="0 0 1345 600"><g fill="#000000"><path d="M1313 510h20v2H988v-2h20v-29h.59l15.41-15.41v-12.92l-15.97-24.06a100.59 100.59 0 0 1 58.31 6.86l-8.35-26.3a99.5 99.5 0 0 1 54.2 19.97L1094.95 381a120.17 120.17 0 0 1 86.27 66.06l1.54-.95A99.71 99.71 0 0 1 1234 432c6.62 0 13.1.64 19.35 1.87l-10.9 25.48a99.4 99.4 0 0 1 30.92 7.7A99.63 99.63 0 0 1 1315 458c5.1 0 10.12.38 15.02 1.12L1313 476.45V510zm-81 0h79v-31.5l-20.35 20.72L1296 501v9h-64 62v-7.56l-16.32-5.44H1225v-2h46.68l-6-2H1182v17h2v-6h8v6h2v-6h8v6h2v-6h8v6h2v-6h8v6h2v-6h8v6zm-58 0v-6h6v-11h-62.25l-20-5h-10l-39.75-9.94-19.75 4.94H1010v12h170v2h-170v13h134v-6h8v6h2v-6h8v6h2v-6h8v6h2zm8-59.27V491h42.02L1182 450.73zm-2 40.27v-40.22L1138.9 491h41.1zm-154-35.32v10.73L1011.41 481H1028l12.7-3.17-14.7-22.15zM1257.1 491l-8.3-15.39-9.8 9.8V491h18.1zm3.68 0h5.22l21.4 7.14-14.46-27.12-12.16 19.98zm-216.27-14.13l3.49-.87 33.9 8.47-14.75-46.44c-2.15-1-4.34-1.91-6.57-2.75l-16.07 41.6zm41.69 8.68l1.8.45h10l20 5h16.37l-20.91-58.35a98.2 98.2 0 0 0-8.01-5.81l-19.25 58.71zm142.7 5.45h8.1v-6.41l10.81-10.82-6.43-11.93L1228.9 491zm-144.72-5.96l.07.02 19.46-59.33a97.34 97.34 0 0 0-42.92-14.34l23.39 73.65zm174.75 5.15l13.1-21.53a97.37 97.37 0 0 0-28.59-7.21l15.5 28.74zm15.16-21.27l15.31 28.7 36.38-37.03A99.1 99.1 0 0 0 1315 460a97.63 97.63 0 0 0-40.8 8.87l-.1.05zm-215.39-34.33a98.8 98.8 0 0 0-47.3-4.51l31 46.7 16.3-42.2zm123.9 13.95l44.18 42.33 23.75-55.48A98.66 98.66 0 0 0 1234 434a97.52 97.52 0 0 0-51.4 14.54zm-46.22 42.13l43.23-42.31-.2-.44a118.2 118.2 0 0 0-81.39-64.26l38.36 107.01zm100.2-96.67h7.42v2h-9.02a5.5 5.5 0 0 0-6.14-4.96l-1.7.2-.47-1.65a9 9 0 0 0-9.08-6.58l-1.1.05-.63-.9a12 12 0 0 0-21.4 3.53l-.5 1.72-1.76-.3a7 7 0 0 0-7.91 8.9l-13.29-.01v-2h11a9 9 0 0 1 10.54-8.87 14 14 0 0 1 24.96-4.12l.5-.01c5.05 0 9.31 3.4 10.64 8.04a7.5 7.5 0 0 1 7.93 4.96zM978 516h335v2H978v-2zm103 38c-2.83 0-5.49-1.1-7.5-3a10.86 10.86 0 0 1-15 0 10.86 10.86 0 0 1-15 0 10.86 10.86 0 0 1-15 0c-2.01 1.9-4.67 3-7.5 3v-2.04a8.9 8.9 0 0 0 6.75-3.1l.75-.86.75.86a8.9 8.9 0 0 0 13.5 0l.75-.86.75.86a8.9 8.9 0 0 0 13.5 0l.75-.86.75.86a8.9 8.9 0 0 0 13.5 0l.75-.86.75.86a8.9 8.9 0 0 0 6.75 3.1V554zm248 1.95a10.91 10.91 0 0 1-8.5-2.95 10.86 10.86 0 0 1-15 0 10.86 10.86 0 0 1-15 0 10.86 10.86 0 0 1-15 0 10.86 10.86 0 0 1-15 0c-2.01 1.9-4.67 3-7.5 3v-2.04a8.9 8.9 0 0 0 6.75-3.1l.75-.86.75.86a8.9 8.9 0 0 0 13.5 0l.75-.86.75.86a8.9 8.9 0 0 0 13.5 0l.75-.86.75.86a8.9 8.9 0 0 0 13.5 0l.75-.86.75.86a8.9 8.9 0 0 0 13.5 0l.75-.86.75.86a8.9 8.9 0 0 0 7.75 3.05v2.04zm-129 23a10.87 10.87 0 0 1-6.5-2.95 10.86 10.86 0 0 1-15 0 10.86 10.86 0 0 1-15 0c-2.01 1.9-4.67 3-7.5 3v-2.04a8.9 8.9 0 0 0 6.75-3.1l.75-.86.75.86a8.9 8.9 0 0 0 13.5 0l.75-.86.75.86a8.9 8.9 0 0 0 13.5 0l.75-.86.75.86a8.92 8.92 0 0 0 5.75 3.05v2.04zM155.4 70h9.6a9 9 0 0 1 10.54-8.87 14 14 0 0 1 24.96-4.12l.5-.01c5.05 0 9.31 3.4 10.64 8.04a7.5 7.5 0 0 1 7.93 4.96H227v2h-9.02a5.5 5.5 0 0 0-6.14-4.96l-1.7.2-.47-1.65A9 9 0 0 0 200.6 59l-1.1.05-.63-.9a12 12 0 0 0-21.4 3.53l-.5 1.72-1.76-.3a7 7 0 0 0-7.91 8.9l-1.68-.01h-10.08l6.47 97v40.59l5 5V281h30v2H31v-2h30v-66.41l5-5V169l7.9-118.46a5 5 0 1 1 4.2 0L84.33 144 91.9 30.54a5 5 0 1 1 4.2 0L103.13 136h9.02l1.85-10 1.85 10h9.02l7.03-105.46a5 5 0 1 1 4.2 0L143.67 144l6.23-93.46a5 5 0 1 1 4.2 0L155.4 70zm3.6 211h6v-65.59l-5-5V201l-18-18h-16v32l12 36 9-36 12 48v18zm-90 0v-18l12-48 9 36 12-36v-32H86l-18 18v9.41l-5 5V281h6zm46 0v-11l4-6 4 6v11h2v-35a11 11 0 0 0-22 0v35h2v-11l4-6 4 6v11h2zm-14 0v-35a13 13 0 1 1 26 0v35h10v-26.68l-23-69-23 69V281h10zm38-25.75V281h18v-17.75l-10-40-8 32zm-50 0l-8-32-10 40V281h18v-25.75zm28-98.05a5.97 5.97 0 0 1-6 0V188l3-9 3 9v-30.8zm2-1.88V164h5v-15l.47-7h-7.5l1.01 5.51a5.99 5.99 0 0 1 1.02 7.8zm0 10.68v28l5 15v-43h-5zm-10-10.68a5.97 5.97 0 0 1 1.02-7.8l1.02-5.52h-7.5l.46 7v15h5v-8.68zm0 10.68h-5v43l5-15v-28zm6.72-19.75l-1.72-9.27-1.72 9.27a6 6 0 0 1 3.44 0zm8.88-6.25l.13-2h-8.5l.36 2h8.01zm-21.33-2l.13 2h8l.38-2h-8.51zM86 149.07V181h16v-31.93L94.13 31h-.26L86 149.07zm-2 33.1v-13.1L76.13 51h-.26L68 169.07v29.1l16-16zm42-33.1V181h16v-31.93L134.13 31h-.26L126 149.07zm34 20L152.13 51h-.26L144 169.07v13.1l16 16v-29.1zM94 29a3 3 0 1 0 0-6 3 3 0 0 0 0 6zm40 0a3 3 0 1 0 0-6 3 3 0 0 0 0 6zm18 20a3 3 0 1 0 0-6 3 3 0 0 0 0 6zm-76 0a3 3 0 1 0 0-6 3 3 0 0 0 0 6zm38 107a4 4 0 1 0 0-8 4 4 0 0 0 0 8zm-5 90a1 1 0 0 1 1 1v11a1 1 0 1 1-2 0v-11a1 1 0 0 1 1-1zm10 0a1 1 0 0 1 1 1v11a1 1 0 1 1-2 0v-11a1 1 0 0 1 1-1zm-12 24.6V281h4v-10.4l-2-3-2 3zm10 0V281h4v-10.4l-2-3-2 3zm-7-58.6a1 1 0 0 1 1 1v10a1 1 0 1 1-2 0v-10a1 1 0 0 1 1-1zm8 0a1 1 0 0 1 1 1v10a1 1 0 1 1-2 0v-10a1 1 0 0 1 1-1zm-43-9a1 1 0 0 1 1 1v19a1 1 0 1 1-2 0v-19a1 1 0 0 1 1-1zm78 0a1 1 0 0 1 1 1v19a1 1 0 1 1-2 0v-19a1 1 0 0 1 1-1zm-63-12a1 1 0 0 1 1 1v49a1 1 0 1 1-2 0v-49a1 1 0 0 1 1-1zm48 0a1 1 0 0 1 1 1v49a1 1 0 1 1-2 0v-49a1 1 0 0 1 1-1zm-67-22a1 1 0 0 1 1 1v19a1 1 0 1 1-2 0v-19a1 1 0 0 1 1-1zm5-4a1 1 0 0 1 1 1v19a1 1 0 1 1-2 0v-19a1 1 0 0 1 1-1zm5-4a1 1 0 0 1 1 1v19a1 1 0 1 1-2 0v-19a1 1 0 0 1 1-1zm66 0a1 1 0 0 1 1 1v19a1 1 0 1 1-2 0v-19a1 1 0 0 1 1-1zm5 4a1 1 0 0 1 1 1v19a1 1 0 1 1-2 0v-19a1 1 0 0 1 1-1zm5 4a1 1 0 0 1 1 1v19a1 1 0 1 1-2 0v-19a1 1 0 0 1 1-1zm-58-14a1 1 0 0 1 1 1v19a1 1 0 1 1-2 0v-19a1 1 0 0 1 1-1zm-5 0a1 1 0 0 1 1 1v19a1 1 0 1 1-2 0v-19a1 1 0 0 1 1-1zm-5 0a1 1 0 0 1 1 1v19a1 1 0 1 1-2 0v-19a1 1 0 0 1 1-1zm50 0a1 1 0 0 1 1 1v19a1 1 0 1 1-2 0v-19a1 1 0 0 1 1-1zm-5 0a1 1 0 0 1 1 1v19a1 1 0 1 1-2 0v-19a1 1 0 0 1 1-1zm-5 0a1 1 0 0 1 1 1v19a1 1 0 1 1-2 0v-19a1 1 0 0 1 1-1zM51 287h126v2H51v-2zm21-130a1 1 0 1 1 0-2 1 1 0 0 1 0 2zm0-5a1 1 0 1 1 0-2 1 1 0 0 1 0 2zm0-5a1 1 0 1 1 0-2 1 1 0 0 1 0 2zm0-5a1 1 0 1 1 0-2 1 1 0 0 1 0 2zm0-5a1 1 0 1 1 0-2 1 1 0 0 1 0 2zm8 20a1 1 0 1 1 0-2 1 1 0 0 1 0 2zm0-5a1 1 0 1 1 0-2 1 1 0 0 1 0 2zm0-5a1 1 0 1 1 0-2 1 1 0 0 1 0 2zm0-5a1 1 0 1 1 0-2 1 1 0 0 1 0 2zm0-5a1 1 0 1 1 0-2 1 1 0 0 1 0 2zm-4 20a1 1 0 1 1 0-2 1 1 0 0 1 0 2zm0-5a1 1 0 1 1 0-2 1 1 0 0 1 0 2zm0-5a1 1 0 1 1 0-2 1 1 0 0 1 0 2zm0-5a1 1 0 1 1 0-2 1 1 0 0 1 0 2zm0-5a1 1 0 1 1 0-2 1 1 0 0 1 0 2zm0-5a1 1 0 1 1 0-2 1 1 0 0 1 0 2zm0-5a1 1 0 1 1 0-2 1 1 0 0 1 0 2zm0-5a1 1 0 1 1 0-2 1 1 0 0 1 0 2zm0-5a1 1 0 1 1 0-2 1 1 0 0 1 0 2zm0-5a1 1 0 1 1 0-2 1 1 0 0 1 0 2zm14 35a1 1 0 1 1 0-2 1 1 0 0 1 0 2zm0-5a1 1 0 1 1 0-2 1 1 0 0 1 0 2zm0-5a1 1 0 1 1 0-2 1 1 0 0 1 0 2zm0-5a1 1 0 1 1 0-2 1 1 0 0 1 0 2zm0-5a1 1 0 1 1 0-2 1 1 0 0 1 0 2zm8 20a1 1 0 1 1 0-2 1 1 0 0 1 0 2zm0-5a1 1 0 1 1 0-2 1 1 0 0 1 0 2zm0-5a1 1 0 1 1 0-2 1 1 0 0 1 0 2zm0-5a1 1 0 1 1 0-2 1 1 0 0 1 0 2zm0-5a1 1 0 1 1 0-2 1 1 0 0 1 0 2zm-4 20a1 1 0 1 1 0-2 1 1 0 0 1 0 2zm0-5a1 1 0 1 1 0-2 1 1 0 0 1 0 2zm0-5a1 1 0 1 1 0-2 1 1 0 0 1 0 2zm0-5a1 1 0 1 1 0-2 1 1 0 0 1 0 2zm0-5a1 1 0 1 1 0-2 1 1 0 0 1 0 2zm0-5a1 1 0 1 1 0-2 1 1 0 0 1 0 2zm0-5a1 1 0 1 1 0-2 1 1 0 0 1 0 2zm0-5a1 1 0 1 1 0-2 1 1 0 0 1 0 2zm0-5a1 1 0 1 1 0-2 1 1 0 0 1 0 2zm0-5a1 1 0 1 1 0-2 1 1 0 0 1 0 2zm36 45a1 1 0 1 1 0-2 1 1 0 0 1 0 2zm0-5a1 1 0 1 1 0-2 1 1 0 0 1 0 2zm0-5a1 1 0 1 1 0-2 1 1 0 0 1 0 2zm0-5a1 1 0 1 1 0-2 1 1 0 0 1 0 2zm0-5a1 1 0 1 1 0-2 1 1 0 0 1 0 2zm8 20a1 1 0 1 1 0-2 1 1 0 0 1 0 2zm0-5a1 1 0 1 1 0-2 1 1 0 0 1 0 2zm0-5a1 1 0 1 1 0-2 1 1 0 0 1 0 2zm0-5a1 1 0 1 1 0-2 1 1 0 0 1 0 2zm0-5a1 1 0 1 1 0-2 1 1 0 0 1 0 2zm-4 20a1 1 0 1 1 0-2 1 1 0 0 1 0 2zm0-5a1 1 0 1 1 0-2 1 1 0 0 1 0 2zm0-5a1 1 0 1 1 0-2 1 1 0 0 1 0 2zm0-5a1 1 0 1 1 0-2 1 1 0 0 1 0 2zm0-5a1 1 0 1 1 0-2 1 1 0 0 1 0 2zm0-5a1 1 0 1 1 0-2 1 1 0 0 1 0 2zm0-5a1 1 0 1 1 0-2 1 1 0 0 1 0 2zm0-5a1 1 0 1 1 0-2 1 1 0 0 1 0 2zm0-5a1 1 0 1 1 0-2 1 1 0 0 1 0 2zm0-5a1 1 0 1 1 0-2 1 1 0 0 1 0 2zm14 55a1 1 0 1 1 0-2 1 1 0 0 1 0 2zm0-5a1 1 0 1 1 0-2 1 1 0 0 1 0 2zm0-5a1 1 0 1 1 0-2 1 1 0 0 1 0 2zm0-5a1 1 0 1 1 0-2 1 1 0 0 1 0 2zm0-5a1 1 0 1 1 0-2 1 1 0 0 1 0 2zm8 20a1 1 0 1 1 0-2 1 1 0 0 1 0 2zm0-5a1 1 0 1 1 0-2 1 1 0 0 1 0 2zm0-5a1 1 0 1 1 0-2 1 1 0 0 1 0 2zm0-5a1 1 0 1 1 0-2 1 1 0 0 1 0 2zm0-5a1 1 0 1 1 0-2 1 1 0 0 1 0 2zm-4 20a1 1 0 1 1 0-2 1 1 0 0 1 0 2zm0-5a1 1 0 1 1 0-2 1 1 0 0 1 0 2zm0-5a1 1 0 1 1 0-2 1 1 0 0 1 0 2zm0-5a1 1 0 1 1 0-2 1 1 0 0 1 0 2zm0-5a1 1 0 1 1 0-2 1 1 0 0 1 0 2zm0-5a1 1 0 1 1 0-2 1 1 0 0 1 0 2zm0-5a1 1 0 1 1 0-2 1 1 0 0 1 0 2zm0-5a1 1 0 1 1 0-2 1 1 0 0 1 0 2zm0-5a1 1 0 1 1 0-2 1 1 0 0 1 0 2zm0-5a1 1 0 1 1 0-2 1 1 0 0 1 0 2z"/><path d="M797.99 45a8.5 8.5 0 0 0-8.37-8 12 12 0 0 0-21.6-3.65 6 6 0 0 0-7.95 4.7 8 8 0 0 0-7 6.95H745v2h10.08a6 6 0 0 1 5.92-7h1v-1a4 4 0 0 1 5.92-3.5l.87.47.49-.86a10 10 0 0 1 18.56 3.1l.16.9.91-.08.59-.03a6.5 6.5 0 0 1 6.33 8H810v-2h-12.01zM741 510V306h-2v-6h76v6h-2v2h86v6h-2v2h4l23-34.5V269h-3.32a12 12 0 0 1 22.64 0H940v12.5l23 34.5h8v6h-2v188h20v2H721v-2h20zm72 0h28V344a13 13 0 0 1 10-12.65V327h6v4.35A13 13 0 0 1 867 344v166h28V322h-82v188zm154-188h-8v-6h1.6L938 282.1V273h-12v9.1L903.4 316h1.6v6h-8v172h26v-8a6 6 0 0 1 6-6h6a6 6 0 0 1 6 6v8h26V322zm-154-3v1h82v-1h-3a2 2 0 0 0-4 0h-5a2 2 0 0 0-4 0h-5a2 2 0 0 0-4 0h-5a2 2 0 0 0-4 0h-5a2 2 0 0 0-4 0h-5a2 2 0 0 0-4 0h-5a2 2 0 0 0-4 0h-5a2 2 0 0 0-4 0h-5a2 2 0 0 0-4 0h-3zm166 199h-8v12h-2v-12h-18v12h-2v-12h-8v12h-2v-12h-18v12h-2v-12h-8v12h-2v-12h-18v12h-2v-12h-8v12h-2v-12h-18v12h-2v-12h-8v12h-2v-12h-18v12h-2v-12h-8v12h-2v-12h-18v12h-2v-12h-8v12h-2v-12h-18v12h-2v-12h-8v12h-2v-12h-18v12h-2v-12h-8v12h-2v-12h-48v-2h308v2h-8v12h-2v-12zm-74-192h10v16h-10v-16zm44 0h10v16h-10v-16zm-44 32h10v30h-10v-30zm17 0h20v30h-20v-30zm27 0h10v30h-10v-30zm-44 40h10v30h-10v-30zm17 0h20v30h-20v-30zm27 0h10v30h-10v-30zm-44 40h10v30h-10v-30zm17 0h20v30h-20v-30zm27 0h10v30h-10v-30zm-27-112h20v20h-20v-20zM743 486h68V320h-68v166zm0 2v22h68v-22h-68zm63-12h1v2h-18v-2h1v-42h16v42zm-21 0h1v2h-18v-2h1v-42h16v42zm-21 0h1v2h-18v-2h1v-42h16v42zm42-54h1v2h-18v-2h1v-32h16v32zm-21 0h1v2h-18v-2h1v-32h16v32zm-21 0h1v2h-18v-2h1v-32h16v32zm42-38h1v2h-18v-2h1v-32h16v32zm-21 0h1v2h-18v-2h1v-32h16v32zm-21 0h1v2h-18v-2h1v-32h16v32zm42-38h1v2h-18v-2h1v-20h16v20zm-21 0h1v2h-18v-2h1v-20h16v20zm-21 0h1v2h-18v-2h1v-20h16v20zm66-14.49a9 9 0 0 1 6 8.49v156h-18V340a9 9 0 0 1 6-8.49V327h6v4.51zm54 0a9 9 0 0 1 6 8.49v156h-18V340a9 9 0 0 1 6-8.49V327h6v4.51zM757 476h5v-12h-5v12zm-2-40h-5v12h5v-12zm2 0v12h5v-12h-5zm40-108h-5v18h5v-18zm2 0v18h5v-18h-5zm-2 122h-5v12h5v-12zm2 0v12h5v-12h-5zm-2 26v-12h-5v12h5zm2 0h5v-12h-5v12zm-2-40h-5v12h5v-12zm2 0v12h5v-12h-5zm-23 14h-5v12h5v-12zm0-2v-12h-5v12h5zm0 28v-12h-5v12h5zm7-26h-5v12h5v-12zm0-2v-12h-5v12h5zm0 28v-12h-5v12h5zm-28-26h-5v12h5v-12zm2 0v12h5v-12h-5zm-2 26v-12h-5v12h5zm21-148h-5v18h5v-18zm2 0v18h5v-18h-5zm-23 0h-5v18h5v-18zm2 0v18h5v-18h-5zm42 26v12h5v-12h-5zm-2 0h-5v12h5v-12zm2 30h5v-16h-5v16zm-2 0v-16h-5v16h5zm-19-30v12h5v-12h-5zm-2 0h-5v12h5v-12zm2 30h5v-16h-5v16zm-2 0v-16h-5v16h5zm-19-30v12h5v-12h-5zm-2 0h-5v12h5v-12zm2 30h5v-16h-5v16zm-2 0v-16h-5v16h5zm44 8v12h5v-12h-5zm-2 0h-5v12h5v-12zm2 30h5v-16h-5v16zm-2 0v-16h-5v16h5zm-19-30v12h5v-12h-5zm-2 0h-5v12h5v-12zm2 30h5v-16h-5v16zm-2 0v-16h-5v16h5zm-19-30v12h5v-12h-5zm-2 0h-5v12h5v-12zm2 30h5v-16h-5v16zm-2 0v-16h-5v16h5zm-12-104h68v-12h-68v12zm195-6h2v2h-16v-2h2v-13h12v13zm-58 182v-12h-6v12h6zm2 0h6v-12h-6v12zm-56 0v-12h-6v12h6zm2 0h6v-12h-6v12zm46-14h14v-8h-14v8zm-54 0h14v-8h-14v8zm60-32h-6v10h6v-10zm2 0v10h6v-10h-6zm-2 22v-10h-6v10h6zm2 0h6v-10h-6v10zm-2-34h-6v10h6v-10zm2 0v10h6v-10h-6zm-62 22h6v-10h-6v10zm0 2v10h6v-10h-6zm14-2v-10h-6v10h6zm0 2h-6v10h6v-10zm9-2h10v-10h-10v10zm0 2v10h10v-10h-10zm22-2v-10h-10v10h10zm0 2h-10v10h10v-10zm-22-14h10v-10h-10v10zm22 0v-10h-10v10h10zm-45 0h6v-10h-6v10zm14 0v-10h-6v10h6zm46-40h-6v12h6v-12zm2 0v12h6v-12h-6zm-56 0h-6v12h6v-12zm2 0v12h6v-12h-6zm52-30h-6v12h6v-12zm2 0v12h6v-12h-6zm-56 0h-6v12h6v-12zm2 0v12h6v-12h-6zm25 0h-10v16h10v-16zm2 0v16h10v-16h-10zm-2-30h-10v16h10v-16zm2 0v16h10v-16h-10zm-2 60h-10v16h10v-16zm2 0v16h10v-16h-10zm112 90h-26v14h26v-14zm-70 0v14h26v-14h-26zm27-161h7v-7h-7v7zm0 2v7h7v-7h-7zm16-2v-7h-7v7h7zm0 2h-7v7h7v-7zm13 103h-2v26h2v-26zm2 0v26h2v-26h-2zm-24 0h-7v26h7v-26zm2 0v26h7v-26h-7zm-24 0h-2v26h2v-26zm2 0v26h2v-26h-2zm42-40h-2v26h2v-26zm2 0v26h2v-26h-2zm-24 0h-7v26h7v-26zm2 0v26h7v-26h-7zm-24 0h-2v26h2v-26zm2 0v26h2v-26h-2zm42-40h-2v26h2v-26zm2 0v26h2v-26h-2zm-24 0h-7v26h7v-26zm2 0v26h7v-26h-7zm-24 0h-2v26h2v-26zm2 0v26h2v-26h-2zm42-32h-2v12h2v-12zm2 0v12h2v-12h-2zm-46 0h-2v12h2v-12zm2 0v12h2v-12h-2zm27-57v-2h-12v2h12zm-58 75h-6v12h6v-12zm2 0v12h6v-12h-6zm-56 0h-6v12h6v-12zm2 0v12h6v-12h-6zm46 88h14v-14h-14v14zm-31 0h22v-10h-22v10zm0 38v8h22v-8h-22zm-23-38h14v-14h-14v14zm54-30h14v-14h-14v14zm-31 0h22v-10h-22v10zm-23 0h14v-14h-14v14zm54-30h14v-14h-14v14zm-31 0h22v-10h-22v10zm-23 0h14v-14h-14v14zm54-30h14v-4a7 7 0 0 0-14 0v4zm-31 0h22a11 11 0 0 0-22 0zm-23 0h14v-4a7 7 0 0 0-14 0v4zm35-12.96V329h-2v2.04a13.18 13.18 0 0 1 2 0zm-27 .01V329h-2v2.05a9.1 9.1 0 0 1 2 0zm54 0V329h-2v2.05a9.1 9.1 0 0 1 2 0zM861 510h4v-28h-22v28h4v-24h14v24zm-48-198h84v-2h-84v2zm84 8h6v-2h-6v2zm35-27a4 4 0 1 1 0-8 4 4 0 0 1 0 8zm0-2a2 2 0 1 0 0-4 2 2 0 0 0 0 4zm-14 23a4 4 0 1 1 0-8 4 4 0 0 1 0 8zm0-2a2 2 0 1 0 0-4 2 2 0 0 0 0 4zm28 2a4 4 0 1 1 0-8 4 4 0 0 1 0 8zm0-2a2 2 0 1 0 0-4 2 2 0 0 0 0 4zm-18 0h8v-11h-8v11zm26 168a5 5 0 0 1 5 5v7h-10v-7a5 5 0 0 1 5-5zm3 10v-5a3 3 0 0 0-6 0v5h6zm-47-10a5 5 0 0 1 5 5v7h-10v-7a5 5 0 0 1 5-5zm3 10v-5a3 3 0 0 0-6 0v5h6zm27-223a10 10 0 0 0-16 0h16zm-192 41h16v8h-16v-8zm2 2v4h12v-4h-12zm19-2h16v8h-16v-8zm2 2v4h12v-4h-12zm19-2h16v8h-16v-8zm2 2v4h12v-4h-12zm-51-6h72v-2h-72v2zm154 13v-3h-82v3h1.54a4 4 0 0 1 6.92 0h2.08a4 4 0 0 1 6.92 0h2.08a4 4 0 0 1 6.92 0h2.08a4 4 0 0 1 6.92 0h2.08a4 4 0 0 1 6.92 0h2.08a4 4 0 0 1 6.92 0h2.08a4 4 0 0 1 6.92 0h2.08a4 4 0 0 1 6.92 0h2.08a4 4 0 0 1 6.92 0H895zm66 3h8v-2h-8v2zm-104.43-50a7.5 7.5 0 0 0-7.93-4.96 11.1 11.1 0 0 0-11.14-8.03 13.98 13.98 0 0 0-24.96 4.12A9 9 0 0 0 802 270h-11v2h13.29a7 7 0 0 1 7.91-8.9l1.77.3.5-1.72a12 12 0 0 1 21.39-3.53l.63.9 1.1-.04.41-.01a9 9 0 0 1 8.67 6.59l.46 1.65 1.7-.2a5.5 5.5 0 0 1 6.14 4.96H864v-2h-7.43z"/><path d="M602 510v-10h4v-28h-4v-12h4v-6h7v-13l-5 5v-77.86a10 10 0 0 1 2.93-7.07L613 359v-2.58a8 8 0 0 1-5-7.42v-9.07a8 8 0 0 1-4-6.93v-8a8 8 0 0 1 4-6.93v-14.24a3 3 0 0 1-2-2.83v-11a2 2 0 0 1-2-2v-4c0-1.1.9-2 2-2v-2l-4-4v-6h3c-.63-.84-1-1.87-1-3v-5h5a5 5 0 0 1 4 8h3v6l-4 4v2.54a4 4 0 0 1 2 3.46c1.18 1.2 2 2.5 2 4v19.53l7.17 1.64-2.17-9.5 7.14 6.64L631 299l2.86 9.31 7.14-6.63-2.17 9.5 9.5-2.18-6.64 7.14L651 319l-11 3.38V336a10 10 0 0 1 10 10v6h12v10h1a2 2 0 0 1 2 2v4a2 2 0 0 1-2 2h-1v10h-2v4a8 8 0 0 1-8 8h-2v62h6v6h4v12h-6v28h6v10h18a9.98 9.98 0 0 1 6-18c1.43 0 2.78.3 4 .84l3.86-6.85-1.27-3.99h-2.09a1.5 1.5 0 0 1-1.5-1.5V478l9 2.5c0 .83-.67 1.5-1.5 1.5h-1.81l.95 3h15.94l-.53-1.7a1 1 0 0 1 .95-1.3h5a3 3 0 0 1 0 6 1 1 0 1 1 0-2 1 1 0 1 0 0-2h-3.64l2.6 8.2A10 10 0 0 1 722 510h6v2H590v-2h12zm88 0h20a9.98 9.98 0 0 1 2.05-17.19l-1.48-4.7-11.8 14.52a1 1 0 0 1-.77.37h-4.05a9.99 9.99 0 0 1-3.95 7zm-42-56v-48l-5 5v30a1 1 0 1 1-2 0v-28l-3 3v30a1 1 0 1 1-2 0v-28l-8 8v28h20zm-22 0v-26l-11 11v15h11zm59.72 46.98l.01.02h6.2a8 8 0 0 0-3.17-5.43l-3.04 5.41zm.01 2.02a2 2 0 1 1-1.75-3l3.04-5.41a8 8 0 1 0 4.92 8.41h-6.2zm30.7-2.95a2 2 0 1 1-1.9.6l-1.87-5.92a8 8 0 1 0 1.9-.6l1.87 5.92zM692.7 488.6l-2.94 5.22a10 10 0 0 1 4.2 7.18h2.68l-3.94-12.4zm1.59-1.6l4.11 12.93L708.9 487h-14.61zM648 403.17V346a8 8 0 0 0-8-8h-3.17l-2.83 2.83v76.34l14-14zm2-25.17h10v-8h-1a4 4 0 1 1 0-8h1v-8h-10v24zm0 2v10h2a6 6 0 0 0 6-6v-4h-8zm-16-42h-12v-3a6 6 0 0 0-3-5.2l-1-.58V325c0-1.77-.76-3.36-1.98-4.46L616 323a4 4 0 1 1-8 0v-2.47c-1.23 1.1-2 2.7-2 4.47v8c0 1.74.75 3.35 2 4.47V334a1 1 0 1 1 2 0v15a6 6 0 0 0 3 5.2V346a1 1 0 1 1 2 0v11l19-19zm-24 82v21.17l22-22V398l-22 22zm22-77.17l-19.66 19.66a8 8 0 0 0-2.34 5.65v49.03l22-22v-52.34zm-20-53.37V301a3 3 0 0 1-2 2.83V323a2 2 0 0 0 4 0v-33a2 2 0 0 0-.8-1.6c-.32.43-.73.8-1.2 1.06zm8.31 26.68L616 311.5v5.96l4.31-1.32zM620 325v3.07c.76.44 1.43 1 2 1.64v-7.33l-2.8-.85c.52 1.05.8 2.22.8 3.47zm18-6a7 7 0 0 0-14 0v17h2v-7.68c-.63-.95-1-2.1-1-3.32v-5a4 4 0 0 1 4-4h4a4 4 0 0 1 4 4v5c0 1.23-.37 2.37-1 3.32V336h2v-17zm6.2 0l-4.3-1.32c.07.43.1.87.1 1.32v1.3l4.2-1.3zm-1.77-6.6l-4.38 1c.55.7 1 1.46 1.32 2.3l3.06-3.3zm-5.83-.45l1-4.38-3.3 3.06c.84.33 1.6.77 2.3 1.32zm-5.6-6.15l-1.32 4.3a9.07 9.07 0 0 1 2.64 0l-1.32-4.3zm-6.6 1.77l1 4.38c.7-.55 1.46-1 2.3-1.32l-3.3-3.06zm-4.83 4.83l3.06 3.3c.33-.84.77-1.6 1.32-2.3l-4.38-1zm-1.77 6.6l4.2 1.3V319c0-.45.03-.89.1-1.32l-4.3 1.32zm16.2 17v-5.8a5.97 5.97 0 0 1-6 0v5.8h6zm-5-18a2 2 0 0 0-2 2v5a4 4 0 1 0 8 0v-5a2 2 0 0 0-2-2h-4zm-21-17a1 1 0 1 0 2 0v-11h-2v11zm0-19h2v-2h-2v2zm-4-8h10v-2h-10v2zm2.83 4h4.34l2-2h-8.34l2 2zm-.83 10h4a2 2 0 0 0 0-4h-4v4zm0-21a3 3 0 1 0 3-3h-3v3zm51 99c0 1.1.9 2 2 2h4v-4h-4a2 2 0 0 0-2 2zm-49 90v4h46v-4h-46zm-4 6v8h54v-8h-54zm0 48h54v-8h-54v8zm4-38v28h44v-28h-44zm696.03-67.3v2.25a5.9 5.9 0 0 1-3.32 5.28l-10.92 5.35a4.07 4.07 0 0 1-3.58 0l-10.92-5.35a5.9 5.9 0 0 1-3.32-5.28v-2.26c0-2.42.56-4.72 1.56-6.77-1.05-2.27-1.9-5.58-2.53-9.92 4.42.62 7.79 1.45 10.1 2.48a16.2 16.2 0 0 1 13.8 0c2.31-1.03 5.68-1.86 10.1-2.48-.63 4.34-1.48 7.65-2.53 9.92 1 2.05 1.56 4.35 1.56 6.77zm-28.68-7.6l.4.84-.41.82a13.5 13.5 0 0 0-1.36 5.93v2.26c0 1.49.85 2.85 2.21 3.52l10.91 5.35c.57.28 1.23.28 1.8 0l10.9-5.35a3.93 3.93 0 0 0 2.22-3.52v-2.26c0-2.08-.47-4.1-1.36-5.93l-.4-.82.39-.84c.74-1.6 1.4-3.85 1.93-6.72a30.6 30.6 0 0 0-6.85 1.9l-.85.38-.84-.4a14.17 14.17 0 0 0-12.08 0l-.84.4-.85-.39a30.6 30.6 0 0 0-6.85-1.9 29.22 29.22 0 0 0 1.93 6.73zm5.68 10.33a12.12 12.12 0 0 0 6.97 2.18c2.6 0 5-.8 6.97-2.18a6.97 6.97 0 0 1-6.97 6.12 6.97 6.97 0 0 1-6.97-6.12zm-1.4-10.95c.79-.21 1.59-.03 2.19.43a2.52 2.52 0 0 1 4.73.26c.4 1.5-.04 2.77-1.1 3.89-.27.3-.5.5-1.1 1.01l-.93.82-1.23-.24a14.5 14.5 0 0 1-1.45-.33c-1.48-.44-2.5-1.31-2.9-2.82a2.48 2.48 0 0 1 1.79-3.02zm8.37 10.18c-1.1 0-2-.88-2-1.97 0-1.08.9-1.96 2-1.96s2 .88 2 1.96c0 1.09-.9 1.97-2 1.97zm4.5-11.22c.8.22 1.4.78 1.68 1.47a2.52 2.52 0 0 1 3.98 2.6c-.4 1.5-1.42 2.37-2.9 2.81-.39.12-.68.18-1.45.33l-1.23.24-.94-.82c-.6-.52-.82-.72-1.1-1.01-1.05-1.12-1.5-2.39-1.1-3.89a2.48 2.48 0 0 1 3.06-1.73zM1218 151v-10a1 1 0 0 1 2 0v10h10v-13a1 1 0 0 1 2 0v5h4v-11a1 1 0 0 1 2 0v79h20v-20h-1a1 1 0 0 1 0-2h1v-20h-1a1 1 0 0 1 0-2h1v-20h-1a1 1 0 0 1 0-2h1v-8h-1a1 1 0 0 1 0-2h1a6 6 0 0 1 5-5.92V126a1 1 0 0 1 2 0v3.08a6 6 0 0 1 5 5.92h1a1 1 0 0 1 0 2h-1v8h1a1 1 0 0 1 0 2h-1v20h1a1 1 0 0 1 0 2h-1v20h1a1 1 0 0 1 0 2h-1v20h18v-28h-1a1 1 0 0 1 0-2h1v-28h-1a1 1 0 0 1 0-2h1v-28h-1a1 1 0 0 1 0-2h1v-10h-1a1 1 0 0 1 0-2h1v-1a8 8 0 0 1 7-7.94V95a1 1 0 0 1 2 0v5.06a8 8 0 0 1 7 7.94v1h1a1 1 0 0 1 0 2h-1v10h1a1 1 0 0 1 0 2h-1v28h1a1 1 0 0 1 0 2h-1v28h1a1 1 0 0 1 0 2h-1v38h-280v-38h-1a1 1 0 0 1 0-2h1v-28h-1a1 1 0 0 1 0-2h1v-28h-1a1 1 0 0 1 0-2h1v-10h-1a1 1 0 0 1 0-2h1v-1a8 8 0 0 1 7-7.94V95a1 1 0 0 1 2 0v5.06a8 8 0 0 1 7 7.94v1h1a1 1 0 0 1 0 2h-1v10h1a1 1 0 0 1 0 2h-1v28h1a1 1 0 0 1 0 2h-1v28h1a1 1 0 0 1 0 2h-1v28h18v-20h-1a1 1 0 0 1 0-2h1v-20h-1a1 1 0 0 1 0-2h1v-20h-1a1 1 0 0 1 0-2h1v-8h-1a1 1 0 0 1 0-2h1a6 6 0 0 1 5-5.92V126a1 1 0 0 1 2 0v3.08a6 6 0 0 1 5 5.92h1a1 1 0 0 1 0 2h-1v8h1a1 1 0 0 1 0 2h-1v20h1a1 1 0 0 1 0 2h-1v20h1a1 1 0 0 1 0 2h-1v20h20v-79a1 1 0 0 1 2 0v11h4v-5a1 1 0 0 1 2 0v13h10v-10a1 1 0 0 1 2 0v10h2v-18a10 10 0 0 1 7.33-9.64 2.99 2.99 0 0 1 1.67-4.19V116a1 1 0 0 1 2 0v3.17a3 3 0 0 1 1.67 4.2A10 10 0 0 1 1132 133v18h2v-19.9a34.1 34.1 0 0 1-2.54-25.9 33.85 33.85 0 0 1 8.5-14.16l22.34-22.34a5 5 0 0 1-.8-9.03 2.99 2.99 0 0 1 1.5-4.5V52a1 1 0 0 1 2 0v3.17a3 3 0 0 1 1.5 4.5 5 5 0 0 1-.8 9.03l22.34 22.34c4.1 4.1 6.93 8.97 8.5 14.15a34.1 34.1 0 0 1-2.54 25.91V151h2v-18a10 10 0 0 1 7.33-9.64 2.99 2.99 0 0 1 1.67-4.19V116a1 1 0 0 1 2 0v3.17a3 3 0 0 1 1.67 4.2A10 10 0 0 1 1216 133v18h2zm-78 52v-56h48v56h4v-60h-56v60h4zm2 0h4v-34.12a10 10 0 0 1 5.14-8.74L1164 153l12.86 7.14a10 10 0 0 1 5.14 8.74V203h4v-54h-44v54zm50 2h-10v6h10v-6zm-56 0v6h10v-6h-10zm23-21v-5.08a4 4 0 0 1 1.5-3.12l3.5-2.8 3.5 2.8a4 4 0 0 1 1.5 3.12V184h11v-15.12a8 8 0 0 0-4.11-6.99l-11.89-6.6-11.89 6.6a8 8 0 0 0-4.11 7V184h11zm2 0h6v-5.08a2 2 0 0 0-.75-1.56l-2.25-1.8-2.25 1.8a2 2 0 0 0-.75 1.56V184zm53 27h4v-54h-24v54h4v-14a6 6 0 0 1 2.4-4.8l5.6-4.2 5.6 4.2a6 6 0 0 1 2.4 4.8v14zm-100 0v-14a6 6 0 0 1 2.4-4.8l5.6-4.2 5.6 4.2a6 6 0 0 1 2.4 4.8v14h4v-54h-24v54h4zm106 0h2v-13.86a4 4 0 0 1 1.78-3.33L1228 191l4.22 2.81a4 4 0 0 1 1.78 3.33V211h2v-54h-16v54zm0-58v2h16v-2h-16zm-2 0h-24v2h24v-2zm18-8h-4v6h4v-6zm-144 0v6h4v-6h-4zm16 66v-54h-16v54h2v-13.86a4 4 0 0 1 1.78-3.33L1100 191l4.22 2.81a4 4 0 0 1 1.78 3.33V211h2zm2-58v2h24v-2h-24zm-2 0h-16v2h16v-2zm90-2h1v-4a2 2 0 0 0-.8-1.6l-.2-.15V151zm0-8.25l1.4 1.05a4 4 0 0 1 1.6 3.2v4h1v-4a4 4 0 0 1 1.6-3.2l2.4-1.8 2.4 1.8a4 4 0 0 1 1.6 3.2v4h1v-4a4 4 0 0 1 1.6-3.2l1.4-1.05V140h-16v2.75zm16 2.5l-.2.15a2 2 0 0 0-.8 1.6v4h1v-5.75zm-16-7.25h16v-5a8 8 0 1 0-16 0v5zm-68 13v-5.75l-.2.15a2 2 0 0 0-.8 1.6v4h1zm0-8.25V140h-16v2.75l1.4 1.05a4 4 0 0 1 1.6 3.2v4h1v-4a4 4 0 0 1 1.6-3.2l2.4-1.8 2.4 1.8a4 4 0 0 1 1.6 3.2v4h1v-4a4 4 0 0 1 1.6-3.2l1.4-1.05zm-16 2.5V151h1v-4a2 2 0 0 0-.8-1.6l-.2-.15zm0-7.25h16v-5a8 8 0 1 0-16 0v5zm66 73v-25h-32v25h10v-11.86a4 4 0 0 1 1.78-3.33L1164 193l4.22 2.81a4 4 0 0 1 1.78 3.33V211h10zm-12 0v-11.86a2 2 0 0 0-.9-1.66l-3.1-2.08-3.1 2.08a2 2 0 0 0-.9 1.66V211h2v-7h4v7h2zm-31.77-80h55.54a31.92 31.92 0 0 0 3.24-8H1133c.7 2.78 1.8 5.48 3.24 8zm16.6-50h22.34L1164 69.83 1152.83 81zm24.34 2h-26.34l-9.46 9.46a32.07 32.07 0 0 0-8.83 28.54h62.91a32.07 32.07 0 0 0-8.82-28.54l-9.46-9.46zm26.83 68h4v-4a2 2 0 0 0-.8-1.6l-1.2-.9-1.2.9a2 2 0 0 0-.8 1.6v4zm-84 0h4v-4a2 2 0 0 0-.8-1.6l-1.2-.9-1.2.9a2 2 0 0 0-.8 1.6v4zm148-12v-2h-8v2h1v4h-1v2h8v-2h-1v-4h1zm-8-4h8a4 4 0 1 0-8 0zm0 12v20h8v-20h-8zm0 22v20h8v-20h-8zm0 22v20h8v-20h-8zm30-80v10h12v-10h-12zm0-2h12v-1a6 6 0 1 0-12 0v1zm0 14v28h12v-28h-12zm0 30v28h12v-28h-12zm0 30v28h12v-28h-12zm-264-72v10h12v-10h-12zm0-2h12v-1a6 6 0 1 0-12 0v1zm0 14v28h12v-28h-12zm0 30v28h12v-28h-12zm0 30v28h12v-28h-12zm42-44v-2h-8v2h1v4h-1v2h8v-2h-1v-4h1zm-8-4h8a4 4 0 1 0-8 0zm0 12v20h8v-20h-8zm0 22v20h8v-20h-8zm0 22v20h8v-20h-8zm-29-78h2v6h-2v-6zm-4 0h2v6h-2v-6zm8 0h2v6h-2v-6zm260 0h2v6h-2v-6zm-4 0h2v6h-2v-6zm8 0h2v6h-2v-6zm-36 26h2v4h-2v-4zm-237 80h276v-6h-276v6zm2-4h272v2h-272v-2zm109-90h2v4h-2v-4zm4 0h2v4h-2v-4zm4 0h2v4h-2v-4zm4 0h2v4h-2v-4zm4 0h2v4h-2v-4zm4 0h2v4h-2v-4zm4 0h2v4h-2v-4zm4 0h2v4h-2v-4zm4 0h2v4h-2v-4zm4 0h2v4h-2v-4zm4 0h2v4h-2v-4zm4 0h2v4h-2v-4zm4 0h2v4h-2v-4zm4 0h2v4h-2v-4zm-25-58a3 3 0 1 0 0-6 3 3 0 0 0 0 6zm0-8a1 1 0 1 0 0-2 1 1 0 0 0 0 2zm-42 64a1 1 0 1 0 0-2 1 1 0 0 0 0 2zm84 0a1 1 0 1 0 0-2 1 1 0 0 0 0 2zm-70 10v8h56v-8h-56zm-40.22 32.81L1100 163l4.22 2.81a4 4 0 0 1 1.78 3.33V185h-12v-15.86a4 4 0 0 1 1.78-3.33zM1104 183v-13.86a2 2 0 0 0-.9-1.66l-3.1-2.08-3.1 2.08a2 2 0 0 0-.9 1.66V183h8zm0 28v-13.86a2 2 0 0 0-.9-1.66l-3.1-2.08-3.1 2.08a2 2 0 0 0-.9 1.66V211h8zm119.78-45.19L1228 163l4.22 2.81a4 4 0 0 1 1.78 3.33V185h-12v-15.86a4 4 0 0 1 1.78-3.33zM1232 183v-13.86a2 2 0 0 0-.9-1.66l-3.1-2.08-3.1 2.08a2 2 0 0 0-.9 1.66V183h8zm0 28v-13.86a2 2 0 0 0-.9-1.66l-3.1-2.08-3.1 2.08a2 2 0 0 0-.9 1.66V211h8zm-115.6-46.8l5.6-4.2 5.6 4.2a6 6 0 0 1 2.4 4.8v16h-16v-16a6 6 0 0 1 2.4-4.8zm-.4 18.8h12v-14a4 4 0 0 0-1.6-3.2l-4.4-3.3-4.4 3.3a4 4 0 0 0-1.6 3.2v14zm0 28h12v-14a4 4 0 0 0-1.6-3.2l-4.4-3.3-4.4 3.3a4 4 0 0 0-1.6 3.2v14zm84.4-46.8l5.6-4.2 5.6 4.2a6 6 0 0 1 2.4 4.8v16h-16v-16a6 6 0 0 1 2.4-4.8zm-.4 18.8h12v-14a4 4 0 0 0-1.6-3.2l-4.4-3.3-4.4 3.3a4 4 0 0 0-1.6 3.2v14zm0 28h12v-14a4 4 0 0 0-1.6-3.2l-4.4-3.3-4.4 3.3a4 4 0 0 0-1.6 3.2v14zm-93.43-127h7.43v2h-9.02a5.5 5.5 0 0 0-6.14-4.96l-1.7.2-.47-1.65a9 9 0 0 0-9.08-6.58l-1.1.05-.63-.9a12 12 0 0 0-21.4 3.53l-.5 1.72-1.76-.3a7 7 0 0 0-7.91 8.9l-13.29-.01v-2h11a9 9 0 0 1 10.54-8.87 14 14 0 0 1 24.96-4.12l.5-.01c5.05 0 9.31 3.4 10.64 8.04a7.5 7.5 0 0 1 7.93 4.96zM1268 75H1280v2h-14.17a6.51 6.51 0 0 0-6.92-7.97l-.9.08-.17-.9a10 10 0 0 0-18.56-3.1l-.49.86-.87-.48A4 4 0 0 0 1232 69v1.01h-1a6 6 0 0 0-5.92 7H1215v-2h8.06a8 8 0 0 1 7.01-6.95 6 6 0 0 1 7.94-4.7 12 12 0 0 1 21.61 3.65 8.5 8.5 0 0 1 8.37 8zM990 90a6 6 0 1 1 0-12 6 6 0 0 1 0 12zm0-2a4 4 0 1 0 0-8 4 4 0 0 0 0 8zm-190 42a6 6 0 1 1 0-12 6 6 0 0 1 0 12zm0-2a4 4 0 1 0 0-8 4 4 0 0 0 0 8zM550 408a6 6 0 1 1 0-12 6 6 0 0 1 0 12zm0-2a4 4 0 1 0 0-8 4 4 0 0 0 0 8zM400 130a6 6 0 1 1 0-12 6 6 0 0 1 0 12zm0-2a4 4 0 1 0 0-8 4 4 0 0 0 0 8zm-210 82a6 6 0 1 1 0-12 6 6 0 0 1 0 12zm0-2a4 4 0 1 0 0-8 4 4 0 0 0 0 8zM24 180a6 6 0 1 1 0-12 6 6 0 0 1 0 12zm0-2a4 4 0 1 0 0-8 4 4 0 0 0 0 8zm200 226a6 6 0 1 1 0-12 6 6 0 0 1 0 12zm0-2a4 4 0 1 0 0-8 4 4 0 0 0 0 8zm396-232a6 6 0 1 1 0-12 6 6 0 0 1 0 12zm0-2a4 4 0 1 0 0-8 4 4 0 0 0 0 8zm420 138a6 6 0 1 1 0-12 6 6 0 0 1 0 12zm0-2a4 4 0 1 0 0-8 4 4 0 0 0 0 8z"/><path d="M880 219v-14h4v-6h4v-74l-4-4v-20l-5-5h-20l-7-14h-20.5a3.5 3.5 0 0 1-3.5-3.5V77c0-1.1.9-2 2-2h4c0-1.1.9-2 2-2h9.41l3 3H879l18-4.5V58a10 10 0 0 1 20 0v13.5l18 4.5h30.59l3-3H978a2 2 0 0 1 2 2h4a2 2 0 0 1 2 2v1.5a3.5 3.5 0 0 1-3.5 3.5H962l-7 14h-20l-5 5v98h4v6h4v14h131v2H860v-2h20zm44-59.38V195h-2v-36.38l-24-12V188h-2v-42.38l-2-1V199h12v-42h2v42h20v-37.38l-4-2zM892 199v-55.38l-2-1V199h2zm36-39.62V151a5 5 0 0 0-5-5h-1a7 7 0 0 1-7-7v-11.59l-19-19V133l-6-6v13.38l38 19zM903 71v-3.53c-1.23-1.1-2-2.7-2-4.47v-5a6 6 0 0 1 12 0v5c0 1.78-.77 3.37-2 4.47V71h4V58a8 8 0 1 0-16 0v13h4zm2 0h4v-2.34a5.99 5.99 0 0 1-4 0V71zm59 7l-1 2h19.5c.83 0 1.5-.67 1.5-1.5V77h-6v-2h-8.59l-3 3H964zm-114 0h-2.41l-3-3H836v2h-6v1.5c0 .83.67 1.5 1.5 1.5H851l-1-2zm65 46.59V92h-19v13.59l19 19zm15-26.42l4.17-4.17h19.6l8-16h-27.02L917 73.56V139a5 5 0 0 0 5 5h1c1.96 0 3.73.8 5 2.1V82h2v16.17zM873.7 78h-21.46l8 16h19.59l4.17 4.17V85h.2l-10.5-7zm3.6 0l18 12H915V73.06l-.25-.06h-15.5l-20 5h-1.95zM894 91.54l-8-5.34v33.97l8 8V91.54zM907 54a4 4 0 0 0-4 4v5a4 4 0 1 0 8 0v-5a4 4 0 0 0-4-4zm-21 151h46v-4h-46v4zm-4 2v12h54v-12h-54zm32-45h2v33h-2v-33z"/><polygon points="1007 252 1007 247 1005 247 1005 252 1000 252 1000 254 1005 254 1005 259 1007 259 1007 254 1012 254 1012 252"/><polygon points="997 402 997 397 995 397 995 402 990 402 990 404 995 404 995 409 997 409 997 404 1002 404 1002 402"/><polygon points="1317 248 1317 243 1315 243 1315 248 1310 248 1310 250 1315 250 1315 255 1317 255 1317 250 1322 250 1322 248"/><polygon points="758 84 758 79 756 79 756 84 751 84 751 86 756 86 756 91 758 91 758 86 763 86 763 84"/><polygon points="378 54 378 49 376 49 376 54 371 54 371 56 376 56 376 61 378 61 378 56 383 56 383 54"/><polygon points="248 184 248 179 246 179 246 184 241 184 241 186 246 186 246 191 248 191 248 186 253 186 253 184"/><polygon points="28 84 28 79 26 79 26 84 21 84 21 86 26 86 26 91 28 91 28 86 33 86 33 84"/><polygon points="228 276 228 271 226 271 226 276 221 276 221 278 226 278 226 283 228 283 228 278 233 278 233 276"/><polygon points="686 310 686 305 684 305 684 310 679 310 679 312 684 312 684 317 686 317 686 312 691 312 691 310"/><polygon points="556 250 556 245 554 245 554 250 549 250 549 252 554 252 554 257 556 257 556 252 561 252 561 250"/><polygon points="943 117 943 112 941 112 941 117 936 117 936 119 941 119 941 124 943 124 943 119 948 119 948 117"/><polygon points="818 194 818 189 816 189 816 194 811 194 811 196 816 196 816 201 818 201 818 196 823 196 823 194"/><path d="M896 245l7 7-7 7-7-7 7-7zm-4.2 7l4.2 4.2 4.2-4.2-4.2-4.2-4.2 4.2zM778 213l7 7-7 7-7-7 7-7zm-4.2 7l4.2 4.2 4.2-4.2-4.2-4.2-4.2 4.2zM445 244l7 7-7 7-7-7 7-7zm-4.2 7l4.2 4.2 4.2-4.2-4.2-4.2-4.2 4.2zM262 93l7 7-7 7-7-7 7-7zm-4.2 7l4.2 4.2 4.2-4.2-4.2-4.2-4.2 4.2zM24 405l7 7-7 7-7-7 7-7zm-4.2 7l4.2 4.2 4.2-4.2-4.2-4.2-4.2 4.2z"/><polygon points="0 38 1 39 8 32 1 25 0 26 0 28.8 1 27.8 5.2 32 1 36.2 0 35.2 0 38"/><path d="M977.03 150.5a16 16 0 1 1 7.94 0 4 4 0 0 1-7.94 0zm-.03-4.25c-2.78-1.09-5-3.27-6.16-6.02A19.9 19.9 0 0 0 981 143c3.7 0 7.18-1 10.16-2.77a11.04 11.04 0 0 1-6.16 6.02v2.17a14 14 0 1 0-8 0v-2.17zm11-7.25a6 6 0 1 1 0-12 6 6 0 0 1 0 12zm0-2a4 4 0 1 0 0-8 4 4 0 0 0 0 8zm-9.76-2.24a1 1 0 0 1-1.41 1.41 4 4 0 0 0-5.66 0 1 1 0 0 1-1.41-1.41 6 6 0 0 1 8.48 0zM981 145c-.67 0-1.34-.03-2-.09V150a2 2 0 0 0 4 0v-5.09c-.66.06-1.33.09-2 .09zm7-10a2 2 0 1 1 0-4 2 2 0 0 1 0 4z"/><path d="M665 162h4v-12h-2v-6h2v-25a1 1 0 1 1 2 0v17.4l7.47-28.4H677v-6h2V90h-2v-6h2l19-45.6V17a1 1 0 1 1 2 0v21.4L719 84h2v6h-2v12h2v6h-1.47l7.47 28.4V119a1 1 0 1 1 2 0v25h2v6h-2v12h4v-15a1 1 0 1 1 2 0v15h2v6h-2v70h-2v36h-2v-36h-64v36h-2v-36h-2v-70h-2v-6h2v-15a1 1 0 1 1 2 0v15zm62-12h-56v12h5v-7a3 3 0 1 1 6 0v7h2v-7a3 3 0 1 1 6 0v7h2v-7a3 3 0 1 1 6 0v7h2v-7a3 3 0 1 1 6 0v7h2v-7a3 3 0 1 1 6 0v7h2v-7a3 3 0 1 1 6 0v7h5v-12zm-19-48v-7a3 3 0 1 1 6 0v7h3V90h-36v12h3v-7a3 3 0 1 1 6 0v7h2v-7a3 3 0 1 1 6 0v7h2v-7a3 3 0 1 1 6 0v7h2zm-43 134h68v-68h-68v68zm5-63h58v58h-58v-58zm2 2v54h54v-54h-54zm27 49a22 22 0 1 1 0-44 22 22 0 0 1 0 44zm0-2a20 20 0 1 0 0-40 20 20 0 0 0 0 40zm1-20.58l13.36 7.71-1 1.74-12.36-7.14V210h-2v-7.42l-6.43-3.71 1-1.74 5.43 3.14V186h2v15.42zM683 262v-15a1 1 0 0 0-2 0v21h-2v-21a3 3 0 1 1 6 0v15h-2zm10 0v-15a1 1 0 0 0-2 0v15h-2v-15a3 3 0 1 1 6 0v15h-2zm14 0v-15a1 1 0 0 0-2 0v15h-2v-15a3 3 0 1 1 6 0v15h-2zm10 6v-21a1 1 0 0 0-2 0v15h-2v-15a3 3 0 1 1 6 0v21h-2zm-54-102h72v-2h-72v2zm16-78h40v-2h-40v2zm0 18h40v-2h-40v2zm-10 42h60v-2h-60v2zm2.07-4h55.86l-9.47-36h-36.92l-9.47 36zm8.93 18v-7a1 1 0 0 0-2 0v7h2zm8 0v-7a1 1 0 0 0-2 0v7h2zm8 0v-7a1 1 0 0 0-2 0v7h2zm-8-60v-7a1 1 0 0 0-2 0v7h2zm-1 12a3 3 0 0 1 3 3v6h-6v-6a3 3 0 0 1 3-3zm1 7v-4a1 1 0 0 0-2 0v4h2zm-7 8a3 3 0 0 1 3 3v6h-6v-6a3 3 0 0 1 3-3zm1 7v-4a1 1 0 0 0-2 0v4h2zm11-7a3 3 0 0 1 3 3v6h-6v-6a3 3 0 0 1 3-3zm1 7v-4a1 1 0 0 0-2 0v4h2zm11-7a3 3 0 0 1 3 3v6h-6v-6a3 3 0 0 1 3-3zm1 7v-4a1 1 0 0 0-2 0v4h2zm11-7a3 3 0 0 1 3 3v6h-6v-6a3 3 0 0 1 3-3zm1 7v-4a1 1 0 0 0-2 0v4h2zm-19-22a3 3 0 0 1 3 3v6h-6v-6a3 3 0 0 1 3-3zm1 7v-4a1 1 0 0 0-2 0v4h2zm11-7a3 3 0 0 1 3 3v6h-6v-6a3 3 0 0 1 3-3zm1 7v-4a1 1 0 0 0-2 0v4h2zm-16-19v-7a1 1 0 0 0-2 0v7h2zm8 0v-7a1 1 0 0 0-2 0v7h2zm8 0v-7a1 1 0 0 0-2 0v7h2zm-8 60v-7a1 1 0 0 0-2 0v7h2zm8 0v-7a1 1 0 0 0-2 0v7h2zm8 0v-7a1 1 0 0 0-2 0v7h2zm-38.83-78h35.66L699 41.2 681.17 84zM693 69a3 3 0 0 1 3 3v6h-6v-6a3 3 0 0 1 3-3zm1 7v-4a1 1 0 0 0-2 0v4h2zm11-7a3 3 0 0 1 3 3v6h-6v-6a3 3 0 0 1 3-3zm1 7v-4a1 1 0 0 0-2 0v4h2zm-7-22a3 3 0 0 1 3 3v6h-6v-6a3 3 0 0 1 3-3zm1 7v-4a1 1 0 0 0-2 0v4h2z"/><path d="M1308 338h31v2h-247v-2h37.33l62.67-94 33.33 50 26.67-40 56 84zm-77.74-33l-37.76-56.64L1158.9 338h93.37l-20.66-31H1205v-2h25.26zm56.67 5H1250v-2h35.6l-5.6-8.4v.4h-27v-2h25.93l-26.43-39.64-18.33 48.9 20.5 30.74h50.93l-18.67-28zm-98.02-57.76L1131.74 338h25.01l32.16-85.76zm43.89 52.96l16.11-42.96-22.37 33.56 6.26 9.4zM1112 348h57v2h-57v-2zm70 0h117v2h-117v-2z"/><rect width="47" height="2" x="1192" y="315"/><path d="M1020.99 357a8.5 8.5 0 0 0-8.37-8 12 12 0 0 0-21.6-3.65 6 6 0 0 0-7.95 4.7 8 8 0 0 0-7 6.95H968v2h10.08a6 6 0 0 1 5.92-7h1v-1a4 4 0 0 1 5.92-3.5l.87.47.49-.86a10 10 0 0 1 18.56 3.1l.16.9.91-.08.59-.03a6.5 6.5 0 0 1 6.33 8H1033v-2h-12.01zm-429 3a8.5 8.5 0 0 0-8.37-8 12 12 0 0 0-21.6-3.65 6 6 0 0 0-7.95 4.7 8 8 0 0 0-7 6.95H539v2h10.08a6 6 0 0 1 5.92-7h1v-1a4 4 0 0 1 5.92-3.5l.87.47.49-.86a10 10 0 0 1 18.56 3.1l.16.9.91-.08.59-.03a6.5 6.5 0 0 1 6.33 8H599v-2h-7.01zM338.83 92a3 3 0 0 0-2.83-2h-10a3 3 0 0 0-2.83 2h15.66zm0 2h-15.66a3 3 0 0 0 2.83 2h10a3 3 0 0 0 2.83-2zM329 42V26a2 2 0 0 1 4 0v16h2v18h2v28.1a5 5 0 0 1 0 9.8V124a4 4 0 0 1 4 4v4h16v8l10 10v14l-8 8a6 6 0 0 1 0 12h-12v102h-2V184h-8v102h-2v-36h-8v6h-2v-72h-8v41h4v2h-17.17a6.51 6.51 0 0 0-6.92-7.97l-.9.08-.17-.9a10 10 0 0 0-18.56-3.1l-.49.86-.87-.48A4 4 0 0 0 270 219v1.01h-1a6 6 0 0 0-5.92 7H253v-2h8.06a8 8 0 0 1 7.01-6.95 6 6 0 0 1 7.94-4.7 12 12 0 0 1 21.61 3.65 8.5 8.5 0 0 1 8.37 8H315v-41h-12a6 6 0 0 1 0-12l-8-8v-14l10-10v-8h16v-4a4 4 0 0 1 4-4V97.9a5 5 0 0 1 0-9.8V60h2V42h2zm-32 116v4h68v-4h-68zm0-2h68v-4h-68v4zm.83 8l8 8h50.34l8-8h-66.34zm0-14h66.34l-8-8h-50.34l-8 8zM327 190v4h8v-4h-8zm0-2h8v-4h-8v4zm0 60h8v-4h-8v4zm0-6h8v-4h-8v4zm0-6h8v-4h-8v4zm0-6h8v-4h-8v4zm0-6h8v-4h-8v4zm0-6h8v-4h-8v4zm0-6h8v-4h-8v4zm0-6h8v-4h-8v4zm0-6h8v-4h-8v4zm-24-26a4 4 0 1 0 0 8h56a4 4 0 1 0 0-8h-56zm4-34h48v-6h-48v6zm16-8h16v-4a2 2 0 0 0-2-2h-12a2 2 0 0 0-2 2v4zm4-8h8V98h-8v26zm0-36h8V62h-8v26zm2-28h4V44h-4v16zM126 311.69l4.66 4.65a8 8 0 0 1-1.66 12.59v7.2a4 4 0 0 1 .59 7.54L141 376h6v6h-2v53.86l3.35-3.35 1.17-3.9a3 3 0 0 1 .48-5.44V420a1 1 0 1 1 2 0v3.17a3 3 0 0 1 .48 5.44l1.17 3.9 4.42 4.42A10 10 0 0 1 159 450v32l2-2v-30h2a5 5 0 0 1 4-4.9V434l-4-4v-6h.77a16 16 0 0 1 1.92-20.31l7.55-7.55 2.3-8.42a4 4 0 0 1 .46-7.6V373a1 1 0 1 1 2 0v7.13a4 4 0 0 1 .47 7.6l2.3 8.4 7.54 7.56a16 16 0 0 1 1.92 20.31h.77v6l-4 4v11.1a5 5 0 0 1 4 4.9h2v30l6 6v24h30v2H11v-2h40v-24l6-6v-30h2a5 5 0 0 1 4-4.9V434l-4-4v-6h.77a16 16 0 0 1 1.92-20.31l7.55-7.55 2.3-8.42a4 4 0 0 1 .46-7.6V373a1 1 0 1 1 2 0v7.13a4 4 0 0 1 .47 7.6l2.3 8.4 7.54 7.56A16 16 0 0 1 86.23 424H87v6l-4 4v11.1a5 5 0 0 1 4 4.9h2v30l2 2v-32a10 10 0 0 1 .93-13.07l4.42-4.42 1.17-3.9a3 3 0 0 1 .48-5.44V420a1 1 0 1 1 2 0v3.17a3 3 0 0 1 .48 5.44l1.17 3.9 3.35 3.35V382h-2v-6h6l10.24-29h-16.41a6.51 6.51 0 0 0-6.92-7.97l-.9.08-.17-.9a10 10 0 0 0-18.56-3.1l-.49.86-.87-.48A4 4 0 0 0 69 339v1.01h-1a6 6 0 0 0-5.92 7H52v-2h8.06a8 8 0 0 1 7.01-6.95 6 6 0 0 1 7.94-4.7A12 12 0 0 1 96.62 337a8.5 8.5 0 0 1 8.37 8h14.95l.47-1.33a4 4 0 0 1 .59-7.54v-7.2a8.01 8.01 0 0 1-1.66-12.59l4.66-4.65V300a1 1 0 1 1 2 0v11.69zM147 510h8v-24l2-2v-18h-12v18l2 2v24zm-44 0v-24l2-2v-18H93v18l2 2v24h8zm4-28l2-2v-30h2a5 5 0 0 1 4-4.9V434l-4-4v-6h.77a16 16 0 0 1 1.92-20.31l1.31-1.32V382h-8v56a10 10 0 0 1 0 12v32zm10-81.63l4.24-4.23 2.3-8.42a4 4 0 0 1-2-5.72H117v18.37zm7-20.37v-2h-19v2h19zm2-2v2h19v-2h-19zm2.46 4a3.98 3.98 0 0 1-2 5.72l2.3 8.42 4.24 4.23V382h-4.54zm6.54 20.37l1.31 1.32a16 16 0 0 1 1.92 20.31h.77v6l-4 4v11.1a5 5 0 0 1 4 4.9h2v30l2 2v-32a10 10 0 0 1 0-12v-56h-8v20.37zM126 376h12.88l-11.3-32h-5.16l-11.3 32H124v-3a1 1 0 1 1 2 0v3zm107.57-16H241v2h-9.02a5.5 5.5 0 0 0-6.14-4.96l-1.7.2-.47-1.65a9 9 0 0 0-9.08-6.58l-1.1.05-.63-.9a12 12 0 0 0-21.4 3.53l-.5 1.72-1.76-.3a7 7 0 0 0-7.91 8.9l-13.29-.01v-2h11a9 9 0 0 1 10.54-8.87 14 14 0 0 1 24.96-4.12l.5-.01c5.05 0 9.31 3.4 10.64 8.04a7.5 7.5 0 0 1 7.93 4.96zM122 338a2 2 0 0 0 0 4h6a2 2 0 0 0 0-4h-6zm1-2h4v-6h-4v6zM93 464h12v-8H93v8zm.7-14h10.6l.36-.34a8 8 0 0 0 0-11.32l-4.78-4.77-.88-2.94-.74 2.46-.14.48-4.78 4.77a8 8 0 0 0 .37 11.66zm-.7 4h12v-2H93v2zm6-27a1 1 0 1 0 0-2 1 1 0 0 0 0 2zm-3 31h2v4h-2v-4zm4 0h2v4h-2v-4zm45 6h12v-8h-12v8zm.7-14h10.6l.36-.34a8 8 0 0 0 0-11.32l-4.78-4.77-.88-2.94-.74 2.46-.14.48-4.78 4.77a8 8 0 0 0 .37 11.66zm-.7 4h12v-2h-12v2zm6-27a1 1 0 1 0 0-2 1 1 0 0 0 0 2zm-3 31h2v4h-2v-4zm4 0h2v4h-2v-4zm-7 52v-18h-40v18h40zm-8-82v-2h-24v2h24zm-20 6v11.1a5 5 0 0 1 2.89 1.76 6 6 0 0 1 4.11-2.78V434h-7zm9 0v10.08a6 6 0 0 1 4.11 2.78 5 5 0 0 1 2.89-1.76V434h-7zm-2.65-38h3.3l-1.65-6.07-1.65 6.07zm4.45 2h-5.6l-7.1 7.1a14 14 0 0 0-.83 18.9h21.46a14 14 0 0 0-.83-18.9l-7.1-7.1zm17.2 88h-40v4h40v-4zm-6-6v-24h-8v24h8zm-10 0v-24h-8v24h8zm-10 0v-24h-8v24h8zm-6-30h6a3 3 0 0 0-6 0zm8 0h8a4 4 0 1 0-8 0zm10 0h6a3 3 0 0 0-6 0zm-20 4h28v-2h-28v2zm29.17 28h-30.34l-2 2h34.34l-2-2zM125 386a2 2 0 1 0 0-4 2 2 0 0 0 0 4zm-9.17 46h18.34l2-2h-22.34l2 2zM93 510v-18H53v18h40zm-8-82v-2H61v2h24zm-20 6v11.1a5 5 0 0 1 2.89 1.76 6 6 0 0 1 4.11-2.78V434h-7zm9 0v10.08a6 6 0 0 1 4.11 2.78A5 5 0 0 1 81 445.1V434h-7zm-2.65-38h3.3L73 389.93 71.35 396zm4.45 2h-5.6l-7.1 7.1a14 14 0 0 0-.83 18.9h21.46a14 14 0 0 0-.83-18.9l-7.1-7.1zM93 486H53v4h40v-4zm-6-6v-24h-8v24h8zm-10 0v-24h-8v24h8zm-10 0v-24h-8v24h8zm-6-30h6a3 3 0 0 0-6 0zm8 0h8a4 4 0 1 0-8 0zm10 0h6a3 3 0 0 0-6 0zm-20 4h28v-2H59v2zm29.17 28H57.83l-2 2h34.34l-2-2zM73 386a2 2 0 1 0 0-4 2 2 0 0 0 0 4zm-9.17 46h18.34l2-2H61.83l2 2zM197 510v-18h-40v18h40zm-8-82v-2h-24v2h24zm-20 6v11.1a5 5 0 0 1 2.89 1.76 6 6 0 0 1 4.11-2.78V434h-7zm9 0v10.08a6 6 0 0 1 4.11 2.78 5 5 0 0 1 2.89-1.76V434h-7zm-2.65-38h3.3l-1.65-6.07-1.65 6.07zm4.45 2h-5.6l-7.1 7.1a14 14 0 0 0-.83 18.9h21.46a14 14 0 0 0-.83-18.9l-7.1-7.1zm17.2 88h-40v4h40v-4zm-6-6v-24h-8v24h8zm-10 0v-24h-8v24h8zm-10 0v-24h-8v24h8zm-6-30h6a3 3 0 0 0-6 0zm8 0h8a4 4 0 1 0-8 0zm10 0h6a3 3 0 0 0-6 0zm-20 4h28v-2h-28v2zm29.17 28h-30.34l-2 2h34.34l-2-2zM177 386a2 2 0 1 0 0-4 2 2 0 0 0 0 4zm-9.17 46h18.34l2-2h-22.34l2 2zM141 498a1 1 0 0 1 1 1v4h-2v-4a1 1 0 0 1 1-1zm-4 0a1 1 0 0 1 1 1v4h-2v-4a1 1 0 0 1 1-1zm-4 0a1 1 0 0 1 1 1v4h-2v-4a1 1 0 0 1 1-1zm-4 0a1 1 0 0 1 1 1v4h-2v-4a1 1 0 0 1 1-1zm-4 0a1 1 0 0 1 1 1v4h-2v-4a1 1 0 0 1 1-1zm-4 0a1 1 0 0 1 1 1v4h-2v-4a1 1 0 0 1 1-1zm-4 0a1 1 0 0 1 1 1v4h-2v-4a1 1 0 0 1 1-1zm-4 0a1 1 0 0 1 1 1v4h-2v-4a1 1 0 0 1 1-1zm-4 0a1 1 0 0 1 1 1v4h-2v-4a1 1 0 0 1 1-1zm84 0a1 1 0 0 1 1 1v4h-2v-4a1 1 0 0 1 1-1zm-4 0a1 1 0 0 1 1 1v4h-2v-4a1 1 0 0 1 1-1zm-4 0a1 1 0 0 1 1 1v4h-2v-4a1 1 0 0 1 1-1zm-4 0a1 1 0 0 1 1 1v4h-2v-4a1 1 0 0 1 1-1zm-4 0a1 1 0 0 1 1 1v4h-2v-4a1 1 0 0 1 1-1zm-4 0a1 1 0 0 1 1 1v4h-2v-4a1 1 0 0 1 1-1zm-4 0a1 1 0 0 1 1 1v4h-2v-4a1 1 0 0 1 1-1zm-4 0a1 1 0 0 1 1 1v4h-2v-4a1 1 0 0 1 1-1zm-4 0a1 1 0 0 1 1 1v4h-2v-4a1 1 0 0 1 1-1zm-72 0a1 1 0 0 1 1 1v4h-2v-4a1 1 0 0 1 1-1zm-4 0a1 1 0 0 1 1 1v4h-2v-4a1 1 0 0 1 1-1zm-4 0a1 1 0 0 1 1 1v4h-2v-4a1 1 0 0 1 1-1zm-4 0a1 1 0 0 1 1 1v4h-2v-4a1 1 0 0 1 1-1zm-4 0a1 1 0 0 1 1 1v4h-2v-4a1 1 0 0 1 1-1zm-4 0a1 1 0 0 1 1 1v4h-2v-4a1 1 0 0 1 1-1zm-4 0a1 1 0 0 1 1 1v4h-2v-4a1 1 0 0 1 1-1zm-4 0a1 1 0 0 1 1 1v4h-2v-4a1 1 0 0 1 1-1zm-4 0a1 1 0 0 1 1 1v4h-2v-4a1 1 0 0 1 1-1zm-26 20h198v2H31v-2zm89.76-200.24a6 6 0 1 0 8.48 0L125 313.5l-4.24 4.25zm981.8-62.98a14 14 0 1 0 4.04 6.89 4 4 0 0 1-4.43-6.5l.4-.4zm5.73 5.5a16 16 0 1 1-4.3-6.92l1.01-1.02 2.83 2.83a4 4 0 0 1 .46 5.1zm-27.2 6.27A29.9 29.9 0 0 0 1093 269c4.23 0 8.25-.87 11.9-2.45a12 12 0 0 1-23.8 0zm18.73 5.77c.78-.74 1.45-1.6 1.97-2.54a32.02 32.02 0 0 1-17.58 0c.52.95 1.19 1.8 1.97 2.54a34.15 34.15 0 0 0 13.64 0zM1092 264a1 1 0 0 1-2 0 2 2 0 1 0-4 0 1 1 0 0 1-2 0 4 4 0 1 1 8 0zm10 0a1 1 0 0 1-2 0 2 2 0 1 0-4 0 1 1 0 0 1-2 0 4 4 0 1 1 8 0zm3-8.83l-1.41 1.42a2 2 0 1 0 2.82 0l-1.41-1.42z"/><path d="M532 543.1h4v10h-28v-10h4v-50.02h-20v50.01h4v10h-28v-10h4v-50.01H332v50.01h4v10h-28v-10h4v-50.01h-20v50.01h4v10h-28v-10h4v-50.01h-48v-2h88v-8h-98v-2h98v-2h-98v-2h98v-2.01h-88v-2h48v-67.02l2-2v-50.02l2-2v-40.01l2-2V270h2v-4h4v4h2c0 1.34 0 2.67.02 4H318v-4h2v-4h4v4h2c0 91.9 32.7 168.55 76 186.9 19.98-8.47 37.7-29.35 51-58.41v-.45h.2C468.6 364.17 478 319.28 478 270h2v-4h4v4h2v4h31.98l.02-4h2v-4h4v4h2v40.01l2 2v40.02l2 2v50.02l2 2v67.02h76v2h-76v2h76v2h-76v2h76v2h-76v8h76v2h-76v50.02zM313.76 404.27l.24-.23v-31.01h-12.82a227.29 227.29 0 0 0 12.58 31.24zm.24-33.24v-12h-30v12h30zm0-14v-3.01l2-2v-21h-24.99a314.99 314.99 0 0 0 5.53 26H314zm2-28.02v-12h-32v12h32zm0-14v-3l2-2V290h-31.48c.45 8.51 1.18 16.86 2.17 25H316zm2-27.01v-12h-34v12h34zm-6 185.06v-48.02h-1v48.02h1zm0-50.02v-12h-28v12h28zm20 13.11v36.91h1v-35.75l-1-1.16zm0 38.91v2h180v-2H332zm0 4v2h180v-2H332zm0 4v8h180v-8H332zm-6-174.02v.96l.11.12-.11-1.08zm2 15.8v27.18l2 2v50.02l2 2v27c1.64 2 3.3 3.9 5 5.7v-72.49a314.1 314.1 0 0 1-9-41.41zm-15.73 80.92c-.43-.85-.85-1.71-1.27-2.58v5.86h1v-3l.27-.28zM297 409.05v-36.01h-7v31l2 2v3h5zm0 16h-5v48.02h5v-48.02zm-7 0h-8v-16h8v-2.17l-2-2v-31.84h-6v-16h6v-2.18l-2-2v-21.84h-4v-16h4v-2.18l-2-2v-20.83h-2v-16h2v-2h-4v38.83l-2 2v40.02l-2 2v50.02l-2 2v66.19h16v-48.02zm19-16v-10h.05a237.41 237.41 0 0 1-9.98-26.01H299v36h10zm0 16h-10v48.02h10v-48.02zm-14.53-68.02a317.48 317.48 0 0 1-5.49-26H288v21l2 2v3h4.47zM290 493.08h-16v50.01h16v-50.01zm-4-184.03v.96l.11.12-.11-1.08zm188 184.03v50.01h16v-50.01h-16zm38-20.01v-48.02h-5v48.02h5zm-7 0v-48.02h-10v48.02h10zm-12 0v-48.02h-1v48.02h1zm-3 0v-48.02h-7v48.02h7zm-9 0v-48.8c-2.26 3.35-4.6 6.52-7 9.5v39.3h7zm-9 0v-36.9l-1 1.15v35.75h1zm-3 0v-33.54c-.66.71-1.33 1.41-2 2.1v31.44h2zm-4 0V443.6a88.93 88.93 0 0 1-6 5.28v24.19h6zm-8 0v-22.63a77 77 0 0 1-2 1.45v21.18h2zm-4 0v-19.82a67.64 67.64 0 0 1-6 3.5v16.32h6zm-8 0v-15.33c-.66.32-1.33.62-2 .9v14.43h2zm-4 0v-13.61c-1.98.76-3.98 1.4-6 1.93v11.68h6zm-8 0v-11.2c-.66.15-1.33.28-2 .4v10.8h2zm-4 0v-10.49c-1.98.28-3.98.44-6 .48v10.01h6zm-8 0v-10.01c-.67-.02-1.34-.04-2-.08v10.09h2zm-4 0v-10.25c-2.02-.2-4.02-.52-6-.95v11.2h6zm-8 0v-11.68a54.2 54.2 0 0 1-2-.56v12.24h2zm-4 0v-12.88c-1-.35-2-.72-3-1.13-1 .4-2 .78-3 1.13v12.88h6zm-8 0v-12.24c-.66.2-1.33.39-2 .56v11.68h2zm-4 0v-11.2c-1.98.43-3.98.75-6 .95v10.25h6zm-8 0v-10.1c-.66.05-1.33.07-2 .09v10.01h2zm-4 0v-10.01c-2.02-.04-4.02-.2-6-.48v10.49h6zm-8 0v-10.8c-.67-.12-1.34-.25-2-.4v11.2h2zm-4 0v-11.68a55.48 55.48 0 0 1-6-1.93v13.61h6zm-8 0v-14.43c-.67-.28-1.34-.58-2-.9v15.33h2zm-4 0v-16.31a67.64 67.64 0 0 1-6-3.51v19.82h6zm-8 0v-21.18a77 77 0 0 1-2-1.45v22.63h2zm-4 0v-24h.22a88.7 88.7 0 0 1-6.22-5.47v29.47h6zm-8 0v-31.45a103.5 103.5 0 0 1-2-2.09v33.54h2zm170-100.03v36h5v-3l2-2v-31h-7zm-2 0h-.07a237.56 237.56 0 0 1-9.93 25.89v10.12h10v-36.01zm-2.18 0H490v31l.24.24a199 199 0 0 0 2.76-5.8v-.44h.2a235.16 235.16 0 0 0 9.62-25zm-11.1 32.73l.28.28v3h1v-5.86c-.42.87-.84 1.73-1.27 2.58zM507 423.05h5v-12h-5v2h1v8h-1v2zm-2 0v-12h-10v2h1v8h-1v2h10zm-12 0v-12h-4.02l-1.1 2h.12v8h-2v-4.73c-.66 1.12-1.33 2.22-2 3.3v3.43h9zm-9-7.27c.91-1.55 1.81-3.12 2.7-4.73H484v4.73zm-84.61 42.14l-.39-.18v.32l.39-.14zm-2.39.82v-1.98a70.6 70.6 0 0 1-10-6.32v10.37a50.63 50.63 0 0 0 10-2.07zm-12 2.23v-11.9h.22a93.35 93.35 0 0 1-10.22-9.54v21.03a49 49 0 0 0 10 .41zm-12-.74v-22.91a127.92 127.92 0 0 1-10-13.05v33.04a52.71 52.71 0 0 0 10 2.92zm-12-3.77v-35.24a175.42 175.42 0 0 1-10-18.03v47.65a64.4 64.4 0 0 0 10 5.62zm-12-7.03v-50.39h.05A237.64 237.64 0 0 1 339 372.81v68a85.44 85.44 0 0 0 10 8.62zm55.61 8.5l.39.13v-.32l-.39.18zm2.39.8a50.63 50.63 0 0 0 10 2.08v-10.37a70.6 70.6 0 0 1-10 6.32v1.98zm12 2.24a48.9 48.9 0 0 0 10-.4v-21.04a93.6 93.6 0 0 1-10 9.35v12.1zm12-.74a52.71 52.71 0 0 0 10-2.92v-33.04c-3.19 4.73-6.53 9.1-10 13.05v22.91zm12-3.77a64.4 64.4 0 0 0 10-5.62V403.2a175.42 175.42 0 0 1-10 18.03v35.24zm12-7.03a85.45 85.45 0 0 0 10-8.62v-68c-2.96 9.27-6.3 18-10 26.12v50.5zm12-10.69c1.7-1.8 3.36-3.7 5-5.69v-27l2-2v-50.02l2-2v-27.18a314.1 314.1 0 0 1-9 41.41v72.48zm7-8.2c2.77-3.55 5.44-7.39 8-11.48v-10.01h5.78c.51-.95 1.01-1.91 1.5-2.89l-1.28-1.28v-31.84h-6v-16h6v-2.18l-2-2v-21.84h-4v-16h33.31c1-8.15 1.72-16.5 2.17-25.01H486v20l2 2v3h-2v-2.17l-2-2v-20.83h-2v-16h2v-2h-4v38.83l-2 2v40.02l-2 2v50.02l-2 2v23.67zm44-121.49l-.11 1.08.11-.12v-.96zm-2.98 21.97a317.48 317.48 0 0 1-5.5 26.01H514v-3l2-2v-21h-.98zm-2.03 0H488v21l2 2.01v3h17.46c2.15-8.33 4-17.02 5.53-26zM507 371.04h7v-12h-5c-.32 1.24-.66 2.48-1 3.71v6.28h-1v2zm-3.54 0c.88-2.81 1.73-5.67 2.54-8.57v-1.44h.4l.54-2H484v12h19.46zm12.54-46.2l1.89-14.71a353.2 353.2 0 0 1-1.89 14.72v2.17h-.33l-.32 2h.65v-4.17zm-.94-7.82H484v12h29.32l.68-4.34v-5.66h.8c.1-.67.18-1.33.26-2zm2.52-29.01c.18-3.97.31-7.97.37-12H484v12h33.58zm-39.7 22.12l.12-.12v-.96l-.11 1.08zm42.12.71l-2 2v40.02l-2 2v50.02l-2 2v136.21h16V406.88l-2-2v-50.02l-2-2v-40.02l-2-2V272h-4v38.84zm-34 8.18h2v8h-2v-8zm4 0h2v8h-2v-8zm4 0h2v8h-2v-8zm4 0h2v8h-2v-8zm4 0h2v8h-2v-8zm4 0h2v8h-2v-8zm4 0h2v8h-2v-8zm-24 42.01h2v8h-2v-8zm4 0h2v8h-2v-8zm4 0h2v8h-2v-8zm4 0h2v8h-2v-8zm4 0h2v8h-2v-8zm8 0h2v8h-2v-8zm-20 52.02h2v8h-2v-8zm8 0h2v8h-2v-8zm4 0h2v8h-2v-8zm8 0h2v8h-2v-8zm24 72.02h2v2h-2v-2zm4 0h2v2h-2v-2zm4 0h2v2h-2v-2zm4 0h2v2h-2v-2zm4 0h2v2h-2v-2zm4 0h2v2h-2v-2zm4 0h2v2h-2v-2zm4 0h2v2h-2v-2zm4 0h2v2h-2v-2zm4 0h2v2h-2v-2zm4 0h2v2h-2v-2zm4 0h2v2h-2v-2zm4 0h2v2h-2v-2zm4 0h2v2h-2v-2zm4 0h2v2h-2v-2zm4 0h2v2h-2v-2zm4 0h2v2h-2v-2zm4 0h2v2h-2v-2zm-268 0h2v2h-2v-2zm4 0h2v2h-2v-2zm4 0h2v2h-2v-2zm4 0h2v2h-2v-2zm4 0h2v2h-2v-2zm4 0h2v2h-2v-2zm4 0h2v2h-2v-2zm4 0h2v2h-2v-2zm4 0h2v2h-2v-2zm4 0h2v2h-2v-2zm4 0h2v2h-2v-2zm4 0h2v2h-2v-2zm4 0h2v2h-2v-2zm4 0h2v2h-2v-2zm4 0h2v2h-2v-2zm4 0h2v2h-2v-2zm4 0h2v2h-2v-2zm4 0h2v2h-2v-2zm4 0h2v2h-2v-2zm4 0h2v2h-2v-2zm4 0h2v2h-2v-2zm4 0h2v2h-2v-2zm4 0h2v2h-2v-2zm4 0h2v2h-2v-2zm4 0h2v2h-2v-2zm4 0h2v2h-2v-2zm4 0h2v2h-2v-2zm4 0h2v2h-2v-2zm4 0h2v2h-2v-2zm4 0h2v2h-2v-2zm4 0h2v2h-2v-2zm4 0h2v2h-2v-2zm4 0h2v2h-2v-2zm4 0h2v2h-2v-2zm4 0h2v2h-2v-2zm4 0h2v2h-2v-2zm4 0h2v2h-2v-2zm4 0h2v2h-2v-2zm4 0h2v2h-2v-2zm4 0h2v2h-2v-2zm4 0h2v2h-2v-2zm4 0h2v2h-2v-2zm4 0h2v2h-2v-2zm4 0h2v2h-2v-2zm4 0h2v2h-2v-2zM320 272v38.84l-2 2v40.02l-2 2v50.02l-2 2v136.21h16V406.88l-2-2v-50.02l-2-2v-40.02l-2-2V272h-4zm-34 47.02h2v8h-2v-8zm4 0h2v8h-2v-8zm4 0h2v8h-2v-8zm4 0h2v8h-2v-8zm4 0h2v8h-2v-8zm4 0h2v8h-2v-8zm4 0h2v8h-2v-8zm4 0h2v8h-2v-8zm-28 42.01h2v8h-2v-8zm4 0h2v8h-2v-8zm4 0h2v8h-2v-8zm4 0h2v8h-2v-8zm4 0h2v8h-2v-8zm4 0h2v8h-2v-8zm4 0h2v8h-2v-8zm-24 52.02h2v8h-2v-8zm4 0h2v8h-2v-8zm4 0h2v8h-2v-8zm4 0h2v8h-2v-8zm4 0h2v8h-2v-8zm4 0h2v8h-2v-8zm4 0h2v8h-2v-8zM486 278h2v8h-2v-8zm4 0h2v8h-2v-8zm4 0h2v8h-2v-8zm4 0h2v8h-2v-8zm4 0h2v8h-2v-8zm4 0h2v8h-2v-8zm4 0h2v8h-2v-8zm4 0h2v8h-2v-8zm-228 0h2v8h-2v-8zm4 0h2v8h-2v-8zm4 0h2v8h-2v-8zm4 0h2v8h-2v-8zm4 0h2v8h-2v-8zm4 0h2v8h-2v-8zm4 0h2v8h-2v-8zm4 0h2v8h-2v-8zm-44 273.1h24v-6h-24v6zm40 0h24v-6h-24v6zm160-6v6h24v-6h-24zm40 6h24v-6h-24v6zm-83.43-231.08H434v2h-9.02a5.5 5.5 0 0 0-6.14-4.96l-1.7.2-.47-1.66a9 9 0 0 0-9.08-6.58l-1.1.05-.63-.9a12 12 0 0 0-21.4 3.53l-.5 1.72-1.76-.3a7 7 0 0 0-7.91 8.9H361v-2h11a9 9 0 0 1 10.54-8.87 14 14 0 0 1 24.96-4.12l.5-.02a11.1 11.1 0 0 1 10.64 8.05 7.5 7.5 0 0 1 7.93 4.96zM472 515.94a10.96 10.96 0 0 1-8.5-2.9 10.96 10.96 0 0 1-15-.01 10.96 10.96 0 0 1-15 0 10.96 10.96 0 0 1-15 0 10.96 10.96 0 0 1-15 0 10.96 10.96 0 0 1-7.5 2.95v-2a8.97 8.97 0 0 0 6.75-3.05l.75-.85.75.85a8.97 8.97 0 0 0 13.5 0l.75-.85.75.85a8.97 8.97 0 0 0 13.5 0l.75-.85.75.85a8.97 8.97 0 0 0 13.5 0l.75-.85.75.85a8.97 8.97 0 0 0 13.5 0l.75-.85.75.85a8.97 8.97 0 0 0 7.75 3v2zm-27 57.01a10.96 10.96 0 0 1-6.5-2.9 10.96 10.96 0 0 1-15 0 10.96 10.96 0 0 1-15 0A10.96 10.96 0 0 1 401 573v-2a8.97 8.97 0 0 0 6.75-3.05l.75-.85.75.85a8.97 8.97 0 0 0 13.5 0l.75-.85.75.85a8.97 8.97 0 0 0 13.5 0l.75-.85.75.85a8.97 8.97 0 0 0 5.75 3v2zm-69-41a10.96 10.96 0 0 1-6.5-2.92 10.96 10.96 0 0 1-15 0 10.96 10.96 0 0 1-15 0A10.96 10.96 0 0 1 332 532v-2a8.97 8.97 0 0 0 6.75-3.05l.75-.85.75.85a8.97 8.97 0 0 0 13.5 0l.75-.85.75.85a8.97 8.97 0 0 0 13.5 0l.75-.85.75.85a8.97 8.97 0 0 0 5.75 2.99v2.01zm-150-46.88h2v2h-2v-2zm4 0h2v2h-2v-2zm4 0h2v2h-2v-2zm4 0h2v2h-2v-2zm4 0h2v2h-2v-2zm4 0h2v2h-2v-2zm4 0h2v2h-2v-2zm4 0h2v2h-2v-2zm4 0h2v2h-2v-2zm4 0h2v2h-2v-2zm4 0h2v2h-2v-2zm4 0h2v2h-2v-2zm4 0h2v2h-2v-2zm4 0h2v2h-2v-2zm4 0h2v2h-2v-2zm4 0h2v2h-2v-2zm4 0h2v2h-2v-2zm4 0h2v2h-2v-2zm4 0h2v2h-2v-2zm4 0h2v2h-2v-2zm4 0h2v2h-2v-2zm4 0h2v2h-2v-2zm626 93.88a10.91 10.91 0 0 1-8.5-2.95 10.86 10.86 0 0 1-15 0 10.86 10.86 0 0 1-15 0 10.86 10.86 0 0 1-15 0 10.86 10.86 0 0 1-15 0c-2.01 1.9-4.67 3-7.5 3v-2.04a8.9 8.9 0 0 0 6.75-3.1l.75-.86.75.86a8.9 8.9 0 0 0 13.5 0l.75-.86.75.86a8.9 8.9 0 0 0 13.5 0l.75-.86.75.86a8.9 8.9 0 0 0 13.5 0l.75-.86.75.86a8.9 8.9 0 0 0 13.5 0l.75-.86.75.86a8.9 8.9 0 0 0 7.75 3.05v2.04zm-290-30a10.91 10.91 0 0 1-8.5-2.95 10.86 10.86 0 0 1-15 0 10.86 10.86 0 0 1-15 0 10.86 10.86 0 0 1-15 0 10.86 10.86 0 0 1-15 0c-2.01 1.9-4.67 3-7.5 3v-2.04a8.9 8.9 0 0 0 6.75-3.1l.75-.86.75.86a8.9 8.9 0 0 0 13.5 0l.75-.86.75.86a8.9 8.9 0 0 0 13.5 0l.75-.86.75.86a8.9 8.9 0 0 0 13.5 0l.75-.86.75.86a8.9 8.9 0 0 0 13.5 0l.75-.86.75.86a8.9 8.9 0 0 0 7.75 3.05v2.04zm115 10a10.87 10.87 0 0 1-6.5-2.95 10.86 10.86 0 0 1-15 0 10.86 10.86 0 0 1-15 0c-2.01 1.9-4.67 3-7.5 3v-2.04a8.9 8.9 0 0 0 6.75-3.1l.75-.86.75.86a8.9 8.9 0 0 0 13.5 0l.75-.86.75.86a8.9 8.9 0 0 0 13.5 0l.75-.86.75.86a8.92 8.92 0 0 0 5.75 3.05v2.04zm439 20a10.87 10.87 0 0 1-6.5-2.95 10.86 10.86 0 0 1-15 0 10.86 10.86 0 0 1-15 0c-2.01 1.9-4.67 3-7.5 3v-2.04a8.9 8.9 0 0 0 6.75-3.1l.75-.86.75.86a8.9 8.9 0 0 0 13.5 0l.75-.86.75.86a8.9 8.9 0 0 0 13.5 0l.75-.86.75.86a8.92 8.92 0 0 0 5.75 3.05v2.04zM587 82h4v10h-4v49h2v10h-2v63h77v2H417v-2h20v-63h-2v-10h2V92h-4V82h4V60h-4V50h8v-1a1 1 0 1 1 2 0v1h18v-1a1 1 0 1 1 2 0v1h18v-1a1 1 0 1 1 2 0v1h18v-1a1 1 0 1 1 2 0v1h18v-1a1 1 0 1 1 2 0v1h18v-1a1 1 0 1 1 2 0v1h18v-1a1 1 0 1 1 2 0v1h18v-1a1 1 0 1 1 2 0v1h8v10h-4v22zm-2 0V60H439v22h146zm-97 132h48v-63h-2v-10h2v-1a24 24 0 1 0-48 0v1h2v10h-2v63zm-49-73h41v-33h64v33h41v-37H439v37zm0-49v10h146V92H439zm142-40h-18v2h18v-2zm2 0v2h4v2H437v-2h4v-2h-6v6h154v-6h-6zm-22 0h-18v2h18v-2zm-20 0h-18v2h18v-2zm-20 0h-18v2h18v-2zm-20 0h-18v2h18v-2zm-20 0h-18v2h18v-2zm-38 0v2h18v-2h-18zm142 99h-41v44h41v-44zm-47 0v63h4v-63h-4zm0-10h4v-31h-60v31h4v-1a26 26 0 0 1 52 0v1zm47 56h-41v2h41v-2zm-146 0v2h41v-2h-41zm0-2h41v-44h-41v44zm146 6h-41v13h41v-13zm-146 0v13h41v-13h-41zm47-50h-4v63h4v-63zm-51-61h154v-6H435v6zm2 59h51v-6h-51v6zm2-4h47v2h-47v-2zm97 4h51v-6h-51v6zm2-4h47v2h-47v-2zm-97-83h2v18h-2V62zm20 0h2v18h-2V62zm20 0h2v18h-2V62zm20 0h2v18h-2V62zm20 0h2v18h-2V62zm20 0h2v18h-2V62zm20 0h2v18h-2V62zm20 0h2v18h-2V62zM441 86h2v2h-2v-2zm20 0h2v2h-2v-2zm20 0h2v2h-2v-2zm20 0h2v2h-2v-2zm20 0h2v2h-2v-2zm20 0h2v2h-2v-2zm20 0h2v2h-2v-2zm20 0h2v2h-2v-2zm-130 0h2v2h-2v-2zm20 0h2v2h-2v-2zm20 0h2v2h-2v-2zm20 0h2v2h-2v-2zm20 0h2v2h-2v-2zm20 0h2v2h-2v-2zm20 0h2v2h-2v-2zm-130 8h2v6h-2v-6zm20 0h2v6h-2v-6zm20 0h2v6h-2v-6zm20 0h2v6h-2v-6zm20 0h2v6h-2v-6zm20 0h2v6h-2v-6zm20 0h2v6h-2v-6zm20 0h2v6h-2v-6zm-130 0h2v6h-2v-6zm20 0h2v6h-2v-6zm20 0h2v6h-2v-6zm20 0h2v6h-2v-6zm20 0h2v6h-2v-6zm20 0h2v6h-2v-6zm20 0h2v6h-2v-6zM452 77a6 6 0 1 1 0-12 6 6 0 0 1 0 12zm0-2a4 4 0 1 0 0-8 4 4 0 0 0 0 8zm20 2a6 6 0 1 1 0-12 6 6 0 0 1 0 12zm0-2a4 4 0 1 0 0-8 4 4 0 0 0 0 8zm20 2a6 6 0 1 1 0-12 6 6 0 0 1 0 12zm0-2a4 4 0 1 0 0-8 4 4 0 0 0 0 8zm20 2a6 6 0 1 1 0-12 6 6 0 0 1 0 12zm0-2a4 4 0 1 0 0-8 4 4 0 0 0 0 8zm20 2a6 6 0 1 1 0-12 6 6 0 0 1 0 12zm0-2a4 4 0 1 0 0-8 4 4 0 0 0 0 8zm20 2a6 6 0 1 1 0-12 6 6 0 0 1 0 12zm0-2a4 4 0 1 0 0-8 4 4 0 0 0 0 8zm20 2a6 6 0 1 1 0-12 6 6 0 0 1 0 12zm0-2a4 4 0 1 0 0-8 4 4 0 0 0 0 8zm-129 33h33v29h-33v-29zm2 27h29v-25h-29v25zm2-23h25v21h-25v-21zm2 19h21v-17h-21v17zm99-23h33v29h-33v-29zm2 27h29v-25h-29v25zm2-23h25v21h-25v-21zm2 19h21v-17h-21v17zm-97 89h207v2H457v-2zm163.37-119.34A18.15 18.15 0 0 1 609 89.16l1.9-.65A16.13 16.13 0 0 0 621 98.74l-.63 1.92zm1.26-3.84a14.11 14.11 0 0 1-8.84-8.95l1.9-.64a12.1 12.1 0 0 0 7.57 7.67l-.63 1.92zm8.7-37.82a18.15 18.15 0 0 1 11.37 11.5l-1.9.64a16.13 16.13 0 0 0-10.11-10.22l.63-1.92zm-1.27 3.83a14.11 14.11 0 0 1 8.84 8.95l-1.9.64a12.1 12.1 0 0 0-7.57-7.67l.63-1.92zm-.82 36.21l-9.53-9.64a3.57 3.57 0 0 1 1.3-5.83l-2-2.03a3.57 3.57 0 0 1 1.3-5.83 3.57 3.57 0 0 1 .1-4.89 3.46 3.46 0 0 1 4.83-.11 3.46 3.46 0 0 1 5.76-1.32l9.44 9.55c.39.4 1.02.4 1.41 0 .16-.17.27-.39.29-.62l.38-4.25c.08-.95.5-1.83 1.15-2.5l.75-.75a3.46 3.46 0 0 1 4.94 0l1.06 1.07c.77.8.77 2.07 0 2.86l-.66.67a2.04 2.04 0 0 0-.55 1.82l1.57 7.93c.65 3.3-.37 6.73-2.73 9.12l-4.7 4.75a9.9 9.9 0 0 1-14.11 0zm-8.12-11.07l9.53 9.64a7.92 7.92 0 0 0 11.3 0l4.69-4.75a8.15 8.15 0 0 0 2.18-7.3l-1.56-7.92a4.07 4.07 0 0 1 1.09-3.65l.65-.67-1.06-1.07c-.58-.59-1.53-.59-2.11 0l-.75.75c-.33.34-.53.78-.57 1.25l-.38 4.25c-.07.7-.37 1.37-.87 1.87a2.97 2.97 0 0 1-4.23 0l-9.44-9.55c-.58-.59-1.53-.59-2.11 0-.59.6-.59 1.55 0 2.15l6.7 6.78c.4.4.4 1.04 0 1.43a.99.99 0 0 1-1.41 0l-8.82-8.93c-.59-.59-1.54-.59-2.12 0-.59.6-.59 1.55 0 2.14l9.53 9.65c.39.4.39 1.03 0 1.43a.99.99 0 0 1-1.41 0l-7.42-7.5c-.58-.6-1.53-.6-2.11 0-.59.59-.59 1.55 0 2.14l8.82 8.93c.39.4.39 1.03 0 1.43a.99.99 0 0 1-1.41 0l-4.59-4.65c-.58-.59-1.53-.59-2.12 0-.58.6-.58 1.56 0 2.15zM397.24 235.95c1.32.6 2.05 2.1 1.65 3.56a4.84 4.84 0 0 1-3.53 3.52c-.47.15-.82.23-1.76.42l-.84.18a15.74 15.74 0 0 1-10.9 4.37A15.93 15.93 0 0 1 366 232c0-8.84 7.1-16 15.86-16s15.87 7.16 15.87 16c0 1.36-.17 2.69-.5 3.95zm-2-.18c.33-1.2.5-2.46.5-3.77 0-7.73-6.21-14-13.88-14a13.94 13.94 0 0 0-13.88 14c0 7.73 6.22 14 13.88 14 3.44 0 6.58-1.26 9-3.35-.63-.56-.88-.8-1.2-1.15a4.84 4.84 0 0 1-1.3-4.8 3.02 3.02 0 1 1 5.74-.36c.34-.27.72-.46 1.13-.57zM376.9 234c-1.1 0-1.99-1.34-1.99-3s.9-3 1.99-3c1.1 0 1.98 1.34 1.98 3s-.89 3-1.98 3zm5.24 1.7a1 1 0 0 1 0-1.4.99.99 0 0 1 1.4 0l1.29 1.29c.77.78.77 2.04 0 2.82l-.58.59.58.59c.77.78.77 2.04 0 2.82l-1.05 1.06a.99.99 0 0 1-1.4 0 1 1 0 0 1 0-1.42l1.05-1.05-.59-.59a2.01 2.01 0 0 1 0-2.82l.59-.59-1.29-1.3zm2.57-2.82a.99.99 0 0 1-1.4 0 1 1 0 0 1 0-1.42 4.92 4.92 0 0 1 7 0 1 1 0 0 1 0 1.42.99.99 0 0 1-1.4 0 2.95 2.95 0 0 0-4.2 0zm2.1-6.88c2.46 0 4.7 1 6.3 2.64a1 1 0 0 1 0 1.41.99.99 0 0 1-1.4 0 6.89 6.89 0 0 0-4.9-2.05 1 1 0 0 1-1-1 1 1 0 0 1 1-1zm-15.67.48a8.86 8.86 0 0 1 5.43-4.15 1 1 0 0 1 1.23.71.99.99 0 0 1-.7 1.21 6.89 6.89 0 0 0-4.23 3.23 1 1 0 0 1-1.36.36 1 1 0 0 1-.37-1.36zM216.99 134a10 10 0 0 1-10 10h-2a10 10 0 0 1-9.99-10v-18.5a3.5 3.5 0 1 1 7 0v3.84a3.48 3.48 0 0 1 4 .71 3.49 3.49 0 0 1 4-.71v-7.84a3.5 3.5 0 1 1 7 0V134zm-5-8.71a7 7 0 0 1 3 1.8V111.5a1.5 1.5 0 1 0-3 0v13.79zm3 6.42A5 5 0 0 0 210 127h-8a3 3 0 0 0 3 3h3a3 3 0 0 1 3 3v2h-2v-2a1 1 0 0 0-1-1h-3a5 5 0 0 1-5-5v-11.5a1.5 1.5 0 1 0-3 0V134a8 8 0 0 0 8 8h2a8 8 0 0 0 8-8v-2.3zM202 125h3v-2.5a1.5 1.5 0 1 0-3 0v2.5zm5 0h3v-2.5a1.5 1.5 0 1 0-3 0v2.5z"/><polygon points="1345 38 1339 32 1345 26 1345 28.8 1341.8 32 1345 35.2 1345 38"/></g></svg>