<svg xmlns="http://www.w3.org/2000/svg" width="74" height="74" viewBox="0 0 74 74">
    <defs>
        <linearGradient id="a" x1="0%" y1="0%" y2="100%">
            <stop stop-color="#3FA5E4" offset="0%"></stop>
            <stop stop-color="#9F65EA" offset="100%"></stop>
        </linearGradient>
    </defs>
    <path fill="url(#a)" d="M37 70a33 33 0 1 1 0-66 33 33 0 0 1 0 66zm0-2a31 31 0 1 0 0-62 31 31 0 0 0 0 62zm6.97-44H63a2 2 0 1 1 0 4v3.5C63 37.3 58.3 42 52.5 42h-4.73a8 8 0 0 1-7.6-5.47l-1.94-5.85a1 1 0 0 0-.95-.68h-.56a1 1 0 0 0-.95.68l-1.95 5.85A8 8 0 0 1 26.23 42H21.5C15.7 42 11 37.3 11 31.5V28a2 2 0 1 1 0-4h19.03a6 6 0 0 1 1.9.3l3.17 1.07a6 6 0 0 0 3.8 0l3.18-1.06a6 6 0 0 1 1.9-.31zM19.72 46.94A31.85 31.85 0 0 0 37 52c6.36 0 12.3-1.86 17.28-5.06a20.98 20.98 0 0 1-34.56 0z"></path>
</svg>