<svg xmlns="http://www.w3.org/2000/svg" width="74" height="74px" viewBox="0 0 74 74">
    <defs>
        <linearGradient id="a" x1="0%" y1="0%" y2="100%">
            <stop stop-color="#3FA5E4" offset="0%"></stop>
            <stop stop-color="#9F65EA" offset="100%"></stop>
        </linearGradient>
    </defs>
    <path fill="url(#a)" fill-rule="evenodd" d="M35 13.2l20.22 20.22a1 1 0 0 0 1.7-.71v-2.34A9 9 0 0 1 59.56 24l2.31-2.31a6 6 0 0 1 8.49 0l1.41 1.41-4.01 7.46a6 6 0 0 0-.66 3.69l2.27 15.86A14 14 0 0 1 65.4 62l-6.37 6.37a16 16 0 0 1-22.62 0L15.9 47.86a4 4 0 1 1 5.66-5.67l9.9 9.9a1 1 0 0 0 1.41-1.41L15.2 33a4 4 0 0 1 5.66-5.65L36.42 42.9a1 1 0 1 0 1.41-1.41l-19.1-19.1a4 4 0 0 1 5.67-5.65l17.67 17.68A1 1 0 0 0 43.5 33L29.35 18.86A4 4 0 0 1 35 13.2zm18.8 21.63L33.6 14.62a2 2 0 1 0-2.83 2.83L44.9 31.59a3 3 0 1 1-4.24 4.24L22.98 18.15a2 2 0 1 0-2.83 2.83l19.1 19.1A3 3 0 1 1 35 44.31L19.45 28.76a2 2 0 1 0-2.83 2.83L34.3 49.27a3 3 0 1 1-4.25 4.24l-9.9-9.9a2 2 0 1 0-2.83 2.83l20.51 20.5a14 14 0 0 0 19.8 0l6.36-6.36a12 12 0 0 0 3.4-10.18l-2.27-15.87a8 8 0 0 1 .88-4.92l3.3-6.15-.36-.36a4 4 0 0 0-5.65 0l-2.32 2.32a7 7 0 0 0-2.05 4.95v2.34a3 3 0 0 1-5.12 2.12zm-31.82 33a29.88 29.88 0 0 1-11.73-7.25A29.88 29.88 0 0 1 3 48.86l1.9-.64c1.33 4 3.58 7.76 6.77 10.95a27.88 27.88 0 0 0 10.94 6.77l-.63 1.9zm1.9-5.69a23.9 23.9 0 0 1-9.38-5.8 23.9 23.9 0 0 1-5.8-9.38l1.9-.64a21.9 21.9 0 0 0 5.31 8.6 21.9 21.9 0 0 0 8.6 5.32l-.63 1.9zM36.7 1a29.88 29.88 0 0 1 11.73 7.25 29.88 29.88 0 0 1 7.25 11.73l-1.9.63c-1.33-4-3.58-7.76-6.77-10.94A27.88 27.88 0 0 0 36.08 2.9l.63-1.9zm-1.9 5.7a23.9 23.9 0 0 1 9.38 5.8 23.9 23.9 0 0 1 5.8 9.38l-1.89.63a21.9 21.9 0 0 0-5.32-8.6 21.9 21.9 0 0 0-8.6-5.32l.64-1.9z"></path>
</svg>