<svg xmlns="http://www.w3.org/2000/svg" viewBox="0 0 252 108" xmlns:xlink="http://www.w3.org/1999/xlink">
	<defs>
	<path id="b" d="M613.16 98.25C660.86 91.42 695.13 88 716 88c20.87 0 55.15 3.42 102.84 10.25a20 20 0 0 1 17.16 19.8c1.33 8.27 2 14.92 2 19.95 0 3.83-.67 10.46-2 19.9a20 20 0 0 1-17.2 19.81C770.12 184.57 735.85 188 716 188s-54.13-3.43-102.8-10.29a20 20 0 0 1-17.2-19.8c-1.33-9.44-2-16.07-2-19.91 0-5.02.67-11.67 2-19.96a20 20 0 0 1 17.16-19.8zm.29 1.98A18 18 0 0 0 598 118.04l-.03.32C596.66 126.55 596 133.1 596 138c0 3.72.66 10.28 1.98 19.63a18.1 18.1 0 0 0 15.5 18.1C662.08 182.58 696.27 186 716 186c19.74 0 53.93-3.42 102.51-10.27A18 18 0 0 0 834 157.91c1.34-9.64 2-16.2 2-19.91 0-4.9-.66-11.46-1.97-19.64l-.03-.32a18 18 0 0 0-15.45-17.81C770.95 93.4 736.75 90 716 90s-54.95 3.4-102.55 10.23zM624 138.67v-23.04h7.34v17.08h10.27v5.96H624zm47.62 0h-7.15L663 134.4h-7.87l-1.3 4.28h-7.29l7.87-23.04h9.5l7.72 23.04zm-12.57-18.14l-2.78 9h5.57l-2.79-9zm26.23 18.14h-7.2v-23.04h10.94c3.23 0 5.68.68 7.34 2.04a6.75 6.75 0 0 1 2.5 5.51c0 1.44-.36 2.74-1.08 3.9a6.76 6.76 0 0 1-3.34 2.64l5.33 8.95h-7.73l-4.03-7.5-2.73.14v7.36zm2.44-11.78a4.58 4.58 0 0 0 2.83-.87c.68-.55 1.01-1.35 1.01-2.4 0-.97-.31-1.72-.93-2.24-.63-.53-1.63-.8-3-.8h-2.4v6.35l2.5-.04zm41.68 11.78h-7.15l-1.49-4.28h-7.87l-1.3 4.28h-7.29l7.87-23.04h9.5l7.73 23.04zm-12.57-18.14l-2.79 9h5.57l-2.78-9zm36 2.17c-.73-.45-1.6-.82-2.6-1.1-1.01-.3-1.98-.44-2.9-.44-1.74 0-3.08.54-4.04 1.61a6.23 6.23 0 0 0-1.44 4.3c0 1.87.46 3.34 1.37 4.43.91 1.1 2.28 1.64 4.1 1.64a10.93 10.93 0 0 0 5.85-1.64l1.59 6.3c-.42.23-.93.43-1.54.6a25.32 25.32 0 0 1-4.12.83c-.74.08-1.44.12-2.11.12-3.84 0-6.89-1.02-9.15-3.06-2.25-2.03-3.38-5.06-3.38-9.07 0-1.86.29-3.54.87-5.05.57-1.5 1.4-2.8 2.5-3.85a11.08 11.08 0 0 1 4.02-2.45c1.6-.58 3.4-.87 5.42-.87 1.47 0 2.86.15 4.15.46 1.3.3 2.5.68 3.63 1.13l-2.21 6.1zm32.42 4.38c0 1.86-.33 3.55-.98 5.07a11.36 11.36 0 0 1-2.69 3.88 12.1 12.1 0 0 1-3.96 2.45 14.69 14.69 0 0 1-9.67.1 10.56 10.56 0 0 1-6.55-6.06c-.63-1.51-.95-3.28-.95-5.3 0-1.9.32-3.6.98-5.1a11.41 11.41 0 0 1 6.65-6.28c1.5-.56 3.1-.84 4.8-.84 1.72 0 3.34.25 4.84.75s2.81 1.25 3.93 2.26c1.12 1 2 2.27 2.64 3.77.64 1.51.96 3.28.96 5.3zm-7.24.14c0-1.99-.43-3.6-1.3-4.83-.86-1.24-2.17-1.86-3.93-1.86-1.73 0-3.02.61-3.87 1.83a8.08 8.08 0 0 0-1.27 4.72c0 1.99.44 3.6 1.32 4.86.88 1.25 2.2 1.87 3.96 1.87 1.73 0 3-.61 3.84-1.85a8.32 8.32 0 0 0 1.25-4.74zm30.73-11.6h6.72v23.3h-7.68l-8.54-13.19v12.94h-6.62v-23.04h7.68l8.49 12.99-.05-13zm-111.9 42.39c0 .87-.14 1.66-.43 2.4a5.82 5.82 0 0 1-1.2 1.9c-.51.53-1.12.95-1.82 1.24a6.32 6.32 0 0 1-4.6.04 5.19 5.19 0 0 1-3.03-3.04 6.67 6.67 0 0 1-.44-2.47c0-.86.15-1.66.44-2.4a5.3 5.3 0 0 1 3.01-3.13 6.32 6.32 0 0 1 4.62-.04 5.27 5.27 0 0 1 3.02 3.03c.29.73.43 1.56.43 2.47zm-1.92.07c0-1.31-.36-2.36-1.07-3.15a3.62 3.62 0 0 0-2.82-1.18c-.56 0-1.07.1-1.54.3-.47.2-.88.5-1.21.87a4 4 0 0 0-.78 1.35c-.19.52-.28 1.1-.28 1.74 0 1.33.36 2.39 1.07 3.18a3.62 3.62 0 0 0 2.82 1.17c1.15 0 2.07-.38 2.77-1.16a4.5 4.5 0 0 0 1.04-3.12zm13.98-5.7h1.82v11.48h-2.04l-5.76-8.71.05 8.59h-1.82v-11.36h2.08l5.71 8.59-.04-8.59zm6.68 11.36v-11.36h1.9v9.65h5.37v1.7h-7.27zm11.1 0v-11.36h1.9v11.36h-1.9zm14.55-11.36h1.82v11.48h-2.04l-5.76-8.71.05 8.59h-1.82v-11.36h2.09l5.7 8.59-.04-8.59zm6.68 11.36v-11.36h7.44v1.68h-5.57v3.13h4.63v1.71h-4.63v3.15h5.57v1.69h-7.44zm-123.83-7.02h50.98v2h-50.98v-2zm140.94 0H816v2h-50.98v-2z"></path>
	<filter id="a" width="105.7%" height="114%" x="-2.9%" y="-5%" filterUnits="objectBoundingBox">
		<feOffset dy="2" in="SourceAlpha" result="shadowOffsetOuter1"></feOffset>
		<feGaussianBlur stdDeviation="2" in="shadowOffsetOuter1" result="shadowBlurOuter1"></feGaussianBlur>
		<feColorMatrix values="0 0 0 0 0 0 0 0 0 0 0 0 0 0 0 0 0 0 0.14 0" in="shadowBlurOuter1"></feColorMatrix>
	</filter>
	</defs>
	<g fill="none" transform="translate(-590 -86)">
		<use fill="black" filter="url(#a)" xlink:href="#b"></use>
		<use fill="#FFFFFF" fill-rule="evenodd" xlink:href="#b"></use>
	</g>
</svg>