<svg xmlns="http://www.w3.org/2000/svg" viewBox="0 0 220 100">
    <path fill="#222426" fill-rule="evenodd" d="M130.04 55.41l-12.7-16.45h-3.15v22.06h3.2V44.13l13.03 16.91h2.8V38.96h-3.18V55.4zM98.1 51.33h11.38v-2.85H98.1v-6.65h12.82v-2.85H94.84v22.06h16.26V58.2h-13v-6.87zm-13.36-2.8c-4.43-1.07-5.64-1.92-5.64-3.96 0-1.85 1.62-3.1 4.04-3.1 2.01 0 4 .73 6.08 2.2l1.73-2.45a12.04 12.04 0 0 0-7.74-2.57c-4.35 0-7.37 2.59-7.37 6.28 0 3.98 2.55 5.35 7.26 6.48 4.13.96 5.4 1.87 5.4 3.87 0 1.98-1.7 3.26-4.36 3.26-2.6 0-4.8-.87-7.11-2.8l-1.95 2.33a13.6 13.6 0 0 0 8.95 3.32c4.7 0 7.74-2.54 7.74-6.48 0-3.37-1.97-5.15-7.03-6.39zm106.58-9.57l-6.61 10.41-6.55-10.41h-3.83l8.7 13.34v8.74h3.28v-8.82L195 38.98h-3.68v-.02zm-55.5 3h7.19v19.08h3.28V41.96h7.2v-2.98h-17.68v2.98h.02zm32.93 10.45c3.31-.91 5.15-3.26 5.15-6.58 0-4.24-3.1-6.87-8.06-6.87h-9.75v22.06h3.26V53.1h5.53l5.58 7.93h3.8l-6-8.48.5-.13zm-9.4-2.15V41.9h6.16c3.22 0 5.06 1.52 5.06 4.18 0 2.56-1.97 4.2-5.01 4.2h-6.21zM48.62 32.98a3.87 3.87 0 0 0-3.4-1.98c-1.42 0-2.68.74-3.39 1.98l-5.58 9.74 1.43.82a27.66 27.66 0 0 1 13.64 22.17h-3.91a23.45 23.45 0 0 0-3.1-10.14 23.41 23.41 0 0 0-8.58-8.64l-1.42-.82-5.23 9.09 1.42.82c3.46 2 5.9 5.72 6.4 9.68h-8.95a.6.6 0 0 1-.56-.33c-.07-.13-.17-.37 0-.65l2.5-4.35a9.25 9.25 0 0 0-2.83-1.63l-2.52 4.35a3.88 3.88 0 0 0 0 3.93A3.87 3.87 0 0 0 27.93 69h12.32v-1.65a16.55 16.55 0 0 0-6.76-13.3l1.96-3.42c2.45 1.7 4.5 3.94 6.01 6.54 1.78 3.1 2.7 6.61 2.7 10.16v1.65h10.45v-1.65a30.78 30.78 0 0 0-13.93-25.8l3.98-6.92a.65.65 0 0 1 1.12 0l17.3 30.1c.17.29.07.53 0 .66a.6.6 0 0 1-.56.33h-4.06c.04 1.1.06 2.2 0 3.28h4.06c1.43 0 2.68-.74 3.4-1.98.7-1.24.7-2.7 0-3.93l-17.3-30.1z"></path>
</svg>