<svg xmlns="http://www.w3.org/2000/svg" viewBox="0 0 220 100"><path fill="#222426" d="M73.16 29c2.1 0 3.8 1.7 3.8 3.78v34.44c0 2.09-1.7 3.78-3.8 3.78H42.8c-2.1 0-3.8-1.7-3.8-3.78V32.78c0-2.09 1.7-3.78 3.8-3.78h30.36zm1.68 38.22V32.78c0-.93-.75-1.68-1.68-1.68H42.8c-.94 0-1.7.75-1.7 1.68v34.44c0 .93.76 1.68 1.7 1.68h30.36c.93 0 1.68-.75 1.68-1.68zM49.01 64.7v-8.4l4.75 4.2L49 64.7zm17.15-17.02a6.54 6.54 0 0 1 1.83 4.42v12.6h-4.22V52.16c-.02-.98-.5-2.16-2.63-2.16-4.29 0-9.1 2.15-9.15 2.17l-2.98 1.35V35.3h4.22v11.92c2.11-.68 5.05-1.42 7.9-1.42 2.62 0 4.17 1.02 5.03 1.88zm-5.55-5.55a16.3 16.3 0 0 0 3.16-6.83H68a12.28 12.28 0 0 1-3.16 6.83H60.6zm107.33 8.84V42.4h3.88v8.55c0 1.96.65 2.86 2.2 2.86 1.55 0 2.17-.9 2.17-2.87V42.4H180v8.57c0 3.8-1.82 5.96-6.02 5.96-4.2 0-6.04-2.17-6.04-5.96zm-16.37-8.57h3.89v5.18l3.96-5.18h4.5l-4.83 5.65 5.26 8.66h-4.39l-3.4-5.72-1.1 1.27v4.45h-3.89V42.4zm-18.44 7.15c0-5.24 3.6-7.42 7.07-7.42 3.46 0 7.06 2.18 7.06 7.42s-3.6 7.43-7.06 7.43c-3.48 0-7.06-2.18-7.06-7.43h-.01zm10.24 0c0-2.63-1.15-4.23-3.17-4.23-2.04 0-3.19 1.6-3.19 4.23 0 2.63 1.15 4.34 3.19 4.34 2.02 0 3.16-1.7 3.16-4.34zm-25.85-7.15h5.62c3.69 0 5.94 1.22 5.94 4.66 0 2.24-.95 3.54-2.84 4.17l3.05 5.48h-4.11l-2.78-4.97h-1.07v4.97h-3.8V42.4zm5.48 6.4c1.6 0 2.3-.44 2.3-1.65 0-1.2-.7-1.62-2.3-1.62h-1.67v3.27H123zm-20.33-6.4h10.26v3.21h-6.38v2.32h4.55v3.02h-4.55v2.65h6.7v3.1h-10.58V42.4zm-17.55 0h3.89v5.32h4.77V42.4h3.9v14.3h-3.9v-5.78h-4.77v5.79h-3.89V42.4z"></path></svg>