<svg xmlns="http://www.w3.org/2000/svg" viewBox="0 0 220 100"><path fill="#222426" fill-rule="evenodd" d="M38.58 47.93a4.97 4.97 0 1 0 0 9.93 4.97 4.97 0 0 0 0-9.93zm0-4a4.97 4.97 0 1 0 0-9.94 4.97 4.97 0 0 0 0 9.94zM21 67V34.22h8.67V67H21zm38.71-32.78h9.47L53.43 67h-9.47L59.7 34.22zm18.43 0h13.9V67h-8.68V43.2L71.86 67h-9.47l15.75-32.78zM199 48.24h-4.11v1.63h4v1.3h-4v1.62H199v1.4h-5.41v-7.24H199v1.3zm-12.12-1.3c2.5 0 3.6 1.77 3.63 3.57.04 1.83-1.09 3.68-3.63 3.68h-2.82v-7.24h2.82zm0 5.95c1.65 0 2.3-1.2 2.27-2.38-.03-1.13-.7-2.27-2.27-2.27h-1.52v4.65h1.52zm-10.21-5.94h1.5l3.26 7.24h-1.5l-.61-1.4h-3.8l-.63 1.4h-1.49l3.27-7.24zm-.6 4.54h2.7l-1.35-3.1-1.36 3.1zm-9.17-1.42l2.28-3.12h1.56v7.24h-1.4V48.9L167 52.03h-.27l-2.28-3.14v5.3h-1.4v-7.24h1.57l2.27 3.12zm-11.05-.76c0 1-.45 2-1.83 2.28l2.21 2.48v.12h-1.65l-2.12-2.49h-1.32v2.5h-1.4v-7.31h3.47c1.72.02 2.64 1.16 2.64 2.42zm-4.7 1.2h2.08c.87 0 1.25-.6 1.25-1.18 0-.59-.39-1.2-1.25-1.2h-2.09v2.39zm-10.08 3.68v-7.24h5.41v1.3h-4.11v1.62h4v1.3h-4v1.62h4.11v1.4h-5.4zm-8.77-6.05v-1.2h5.96v1.2h-2.28v6.05h-1.4v-6.05h-2.28zm-5.54 1.58c1.51.19 2.93.58 2.93 2.32 0 1.62-1.44 2.31-3.06 2.31-1.49 0-2.63-.46-3.17-1.78l1.14-.6c.33.8 1.17 1.16 2.05 1.16.86 0 1.68-.3 1.68-1.1 0-.68-.72-.96-1.69-1.06-1.49-.18-2.86-.57-2.86-2.2 0-1.5 1.48-2.11 2.82-2.12 1.13 0 2.3.32 2.86 1.44l-1.1.56c-.24-.41-.93-.8-1.72-.8-1.02 0-1.5.42-1.5.96 0 .63.74.8 1.62.91zm-9.58-2.97c2.5 0 3.75 1.92 3.73 3.82-.02 1.88-1.18 3.76-3.73 3.76-2.56 0-3.75-1.84-3.75-3.75 0-1.9 1.23-3.83 3.75-3.83zm0 6.32c1.71 0 2.36-1.28 2.38-2.48.02-1.22-.67-2.6-2.38-2.6-1.72 0-2.43 1.39-2.4 2.61.04 1.2.68 2.47 2.4 2.47zm-11.52 1.12v-7.24h5.2v1.3h-3.9v1.94h3.68v1.3h-3.68v2.7h-1.3z"></path></svg>