<svg xmlns="http://www.w3.org/2000/svg" viewBox="0 0 220 100"><path fill="#222426" fill-rule="evenodd" d="M66 50.5a21.5 21.5 0 1 1-43 0 21.5 21.5 0 0 1 43 0zM40.68 65.06c-1.43-2.02-4-7.46 3.2-13.59.18-.15.44.03.38.26-.42 1.36-.07 3.55 2.74 5.64 3.73 3.03 1.93 6.1.94 7.58-.2.3.08.7.43.6 3.53-.85 8.29-4.44 8.92-11.27.44-4.79-2.87-8.36-4.24-9.63a.33.33 0 0 0-.55.23c-.1 2.93-3.25 3-3.25 3 1.8-7.82-3.67-11.45-6.06-12.64-.27-.13-.54.15-.42.43.87 2.08-.79 6.05-8.04 12.72-6.58 6.04-1.55 16.42 5.5 17.4.4.05.69-.4.45-.73zm41.3-19.15c3.89 0 6.26 2.4 6.26 7.44 0 5.03-2.44 7.41-6.6 7.41-3.74 0-6.4-2.07-6.4-6.17V41.85c0-.93.75-1.67 1.67-1.67.93 0 1.67.74 1.67 1.67v5.3a5.06 5.06 0 0 1 3.4-1.24zm-.34 12.01c2.13 0 3.3-1.54 3.3-4.57 0-3.06-1.2-4.6-3.3-4.6-1.86 0-3.06 1.58-3.06 1.58v4.26c0 2.13 1.27 3.33 3.06 3.33zm12.22-.4c.86 0 1.54.68 1.54 1.54 0 .87-.68 1.55-1.54 1.55-2.4 0-3.92-1.36-3.92-3.96v-14.8c0-.93.74-1.67 1.67-1.67.92 0 1.66.74 1.66 1.66v15.12c0 .37.37.56.59.56zm8.33-11.6c3.83 0 6.12 1.87 6.12 5.15v7.9c0 .9-.74 1.64-1.64 1.64-.9 0-1.64-.74-1.64-1.64-.83 1.33-2.19 1.79-4.04 1.79-3.02 0-5.03-1.88-5.03-4.66 0-2.87 2.31-4.35 5-4.35H105v-.56c0-1.39-1.02-2.32-2.8-2.32a5.1 5.1 0 0 0-3.1 1.18c-.3.21-.55.3-.92.3-.8 0-1.45-.64-1.45-1.44 0-.34.12-.71.4-1.02.87-.96 2.4-1.98 5.06-1.98zM105 55.2v-.86h-3.6c-1.37 0-2.1.65-2.1 1.76 0 1.17.83 1.88 2.55 1.88 1.64 0 3.15-1.05 3.15-2.78zm15.65 1.18c.84 0 1.48.64 1.48 1.48 0 .43-.15.8-.52 1.14a7.4 7.4 0 0 1-4.94 1.76c-4.2 0-6.7-2.4-6.7-7.44 0-5.03 2.5-7.4 6.7-7.4 2.84 0 4.48 1.41 5.03 2.12.25.34.34.59.34.96 0 .83-.65 1.48-1.48 1.48-.5 0-.86-.22-1.14-.52-.4-.44-1.2-1.2-2.75-1.2-2.16 0-3.33 1.66-3.33 4.56 0 2.96 1.17 4.6 3.33 4.6 1.42 0 2.35-.71 3.06-1.23.34-.25.61-.31.92-.31zm10.07-4.33l4.53 5.96c.25.34.34.68.34.99 0 .9-.7 1.6-1.6 1.6-.59 0-1.02-.27-1.3-.64l-4.6-6.18-.99.78V59c0 .93-.74 1.6-1.66 1.6-.96 0-1.67-.67-1.67-1.6V41.78c0-.92.71-1.6 1.67-1.6.92 0 1.66.68 1.66 1.6v9.1l5.6-4.38c.4-.31.7-.4 1.07-.4.9 0 1.6.7 1.6 1.6 0 .46-.21.96-.61 1.27l-4.04 3.08zm13.4-12.07a1.45 1.45 0 1 1 0 2.9c-1.7 0-2.56.96-2.56 2.32v1.14h2.07c.77 0 1.39.62 1.39 1.4 0 .76-.62 1.38-1.4 1.38h-2.06V59c0 .93-.74 1.6-1.67 1.6-.99 0-1.66-.67-1.66-1.6v-9.88h-.65c-.77 0-1.4-.62-1.4-1.39 0-.77.63-1.39 1.4-1.39h.65v-1.66c0-2.88 1.91-4.7 5.9-4.7zm4.37 1.8c1.26 0 1.95.6 1.95 1.99 0 1.17-.7 1.9-1.95 1.9-1.24 0-1.93-.73-1.93-1.9 0-1.39.7-1.99 1.93-1.99zm0 4.83c.92 0 1.66.74 1.66 1.67v10.66c0 .93-.74 1.67-1.67 1.67-.92 0-1.66-.74-1.66-1.67V48.28c0-.93.74-1.67 1.66-1.67zm10.54-.67a1.58 1.58 0 0 1 0 3.15c-2.13 0-3.33 1.36-3.33 3.43v6.42c0 .93-.74 1.67-1.67 1.67-.93 0-1.67-.74-1.67-1.67V47.76c0-.92.74-1.66 1.67-1.66.93 0 1.67.74 1.67 1.66v.16a3.84 3.84 0 0 1 3.33-1.98zm14.63 6.11c0 1.15 0 2.47-1.88 2.47h-7.63c0 2.23 1.58 3.25 3.62 3.25 1.35 0 2.31-.47 3.05-.96.34-.22.59-.34 1-.34.8 0 1.44.65 1.44 1.45 0 .5-.25.9-.52 1.14-.53.5-2.16 1.7-4.97 1.7-4.3 0-6.95-2.32-6.95-7.47 0-4.72 2.47-7.38 6.67-7.38 5.22 0 6.17 4.01 6.17 6.14zm-9.41-.3h6.11c0-1.52-.86-3-2.87-3-1.8 0-3.09 1.02-3.24 3zm12.59 6.15c.9 0 1.46.47 1.46 1.5 0 1.02-.56 1.46-1.46 1.46-.9 0-1.47-.44-1.47-1.46 0-1.03.56-1.5 1.47-1.5zm4.23-11.67c.56 0 1 .44 1 1v12.63c0 .57-.44 1-1 1s-1-.43-1-1V47.23c0-.56.44-1 1-1zm0-3.85c.74 0 1.18.34 1.18 1.24 0 .75-.44 1.18-1.18 1.18-.75 0-1.19-.43-1.19-1.18 0-.9.44-1.24 1.19-1.24zm9.4 3.67c4.04 0 6.53 2.36 6.53 7.47 0 5.1-2.49 7.5-6.54 7.5-4 0-6.53-2.4-6.53-7.5s2.52-7.47 6.53-7.47zm0 13.16c2.86 0 4.5-1.71 4.5-5.7 0-3.92-1.64-5.66-4.5-5.66-2.87 0-4.52 1.74-4.52 5.67 0 3.98 1.65 5.7 4.51 5.7z"></path></svg>