<svg xmlns="http://www.w3.org/2000/svg" viewBox="0 0 220 100"><path fill="#222426" fill-rule="evenodd" d="M29.4 41.14v13.88h7.58v2.84H26V41.14h3.4zm18.77 0h3.11l7.24 16.72h-3.7l-1.5-3.62h-7.18l-1.5 3.62h-3.71l7.24-16.72zm1.57 4.42L47.3 51.4h4.84l-2.4-5.83zM68 51h-1.66v6.87h-3.4V41.14h7.62a5.01 5.01 0 0 1 5.14 5.13 4.1 4.1 0 0 1-1.46 3.31 6.55 6.55 0 0 1-2.62 1.24l4.7 7.03h-4.14L68 51zm-1.66-7v4.6h3.48a2.26 2.26 0 0 0 2.29-2.33 2.17 2.17 0 0 0-.67-1.65 2.27 2.27 0 0 0-1.62-.63h-3.48zm20.58-2.85h3.11l7.24 16.72h-3.72l-1.5-3.62H84.9l-1.5 3.62h-3.71l7.24-16.72zm1.56 4.42l-2.44 5.83h4.85l-2.4-5.83zm25.03 1.04a5.12 5.12 0 0 0-4.61-2.55c-1.56 0-2.84.5-3.84 1.53a5.42 5.42 0 0 0-1.48 3.95c0 1.62.5 2.93 1.48 3.95a5.08 5.08 0 0 0 3.82 1.53 5.14 5.14 0 0 0 4.6-2.57l3.19 1.42a8.67 8.67 0 0 1-7.75 4.29 8.76 8.76 0 0 1-6.34-2.44 8.23 8.23 0 0 1-2.53-6.19c0-2.49.84-4.55 2.53-6.2a8.72 8.72 0 0 1 6.34-2.46 8.4 8.4 0 0 1 6.26 2.5 8.22 8.22 0 0 1 1.44 1.82l-3.11 1.42zm37.63-5.75a9.43 9.43 0 0 1 6.17 2.2l-2 2.4a6.02 6.02 0 0 0-4.13-1.55 3.3 3.3 0 0 0-2.04.57c-.35.26-.55.68-.55 1.12 0 .5.27.95.7 1.2.36.25 1.24.56 2.63.96 1.64.42 2.86.88 3.67 1.39a4.43 4.43 0 0 1 2.11 3.9c0 1.52-.66 2.79-1.98 3.8a7.46 7.46 0 0 1-4.55 1.31 9.88 9.88 0 0 1-7-2.75l1.92-2.43a7.68 7.68 0 0 0 2.18 1.5c.9.46 1.88.7 2.89.7.94 0 1.69-.2 2.24-.6.45-.33.73-.85.74-1.41 0-.55-.28-1.05-.75-1.33-.37-.25-1.23-.57-2.57-.94-1.72-.5-2.93-.95-3.63-1.36a4.09 4.09 0 0 1-2.18-3.72 4.35 4.35 0 0 1 1.74-3.6 6.89 6.89 0 0 1 4.39-1.36zm11.1.3h13.6v2.81h-5.09v13.9h-3.43v-13.9h-5.07v-2.82zm25.08-.3a9.42 9.42 0 0 1 6.16 2.2l-2 2.4a6 6 0 0 0-4.13-1.55 3.3 3.3 0 0 0-2.04.57c-.35.26-.55.68-.54 1.12 0 .5.27.95.7 1.2.36.25 1.24.56 2.63.96 1.64.42 2.86.88 3.66 1.39a4.43 4.43 0 0 1 2.12 3.9c0 1.52-.66 2.79-1.98 3.8a7.46 7.46 0 0 1-4.55 1.31 9.88 9.88 0 0 1-7-2.75l1.91-2.43a7.68 7.68 0 0 0 2.19 1.5c.9.46 1.88.7 2.89.7.94 0 1.69-.2 2.24-.6.45-.33.73-.85.74-1.41 0-.55-.28-1.05-.75-1.33a9.71 9.71 0 0 0-2.57-.95c-1.72-.5-2.93-.95-3.63-1.36a4.09 4.09 0 0 1-2.18-3.72 4.35 4.35 0 0 1 1.73-3.58 6.92 6.92 0 0 1 4.4-1.37zm-63.36 19.83v-6.97h2.54v2.92l12.62-6.1c.31-.13.61-.3.9-.48l-.3-.2-13.22-6.7v4.21h-2.54V39l16.98 8.63c.62.34 2.06 1.29 1.9 2.63-.14 1.3-1.73 2.18-2.68 2.6l-16.2 7.83zm6.43-8.18h-9.49a.86.86 0 1 1 0-1.73h9.48a.86.86 0 1 1 0 1.73zm-11.41 0h-1.75a.86.86 0 1 1 0-1.73H119a.86.86 0 1 1 0 1.73zm3.86-2.3h-1.74a.86.86 0 1 1 0-1.73h1.74a.86.86 0 1 1 0 1.72zm11.03 0h-9.06a.86.86 0 1 1 0-1.73h9.06a.86.86 0 1 1 0 1.73z"></path></svg>